<?xml version="1.0" encoding="UTF-8" standalone="no"?><svg xmlns="http://www.w3.org/2000/svg" xmlns:xlink="http://www.w3.org/1999/xlink" clip-rule="evenodd" stroke-miterlimit="10" viewBox="0 0 1069 116"><desc>SVG generated by Keynote</desc><defs></defs><g transform="matrix(1.00, 0.00, -0.00, -1.00, 0.0, 116.0)"><image xlink:href="E030F7B1436415A453DBF7E0AE3FA782.png" width="1066.00" height="112.00" transform="matrix(1.00, 0.00, -0.00, -1.00, 2.0, 114.0)"></image><text xml:space="preserve" font-family="Helvetica-Bold,Helvetica" font-weight="bold" font-size="96.0" fill="#FEFFFF" transform="matrix(1.00, 0.00, -0.00, -1.00, 3.0, 35.1)">D</text><text xml:space="preserve" font-family="Helvetica-Bold,Helvetica" font-weight="bold" font-size="96.0" fill="#FEFFFF" transform="matrix(1.00, 0.00, -0.00, -1.00, 72.3, 35.1)">i</text><text xml:space="preserve" font-family="Helvetica-Bold,Helvetica" font-weight="bold" font-size="96.0" fill="#FEFFFF" transform="matrix(1.00, 0.00, -0.00, -1.00, 99.0, 35.1)">g</text><text xml:space="preserve" font-family="Helvetica-Bold,Helvetica" font-weight="bold" font-size="96.0" fill="#FEFFFF" transform="matrix(1.00, 0.00, -0.00, -1.00, 157.6, 35.1)">i</text><text xml:space="preserve" font-family="Helvetica-Bold,Helvetica" font-weight="bold" font-size="96.0" fill="#FEFFFF" transform="matrix(1.00, 0.00, -0.00, -1.00, 184.3, 35.1)">t</text><text xml:space="preserve" font-family="Helvetica-Bold,Helvetica" font-weight="bold" font-size="96.0" fill="#FEFFFF" transform="matrix(1.00, 0.00, -0.00, -1.00, 216.2, 35.1)">i</text><text xml:space="preserve" font-family="Helvetica-Bold,Helvetica" font-weight="bold" font-size="96.0" fill="#FEFFFF" transform="matrix(1.00, 0.00, -0.00, -1.00, 242.9, 35.1)">z</text><text xml:space="preserve" font-family="Helvetica-Bold,Helvetica" font-weight="bold" font-size="96.0" fill="#FEFFFF" transform="matrix(1.00, 0.00, -0.00, -1.00, 290.9, 35.1)">a</text><text xml:space="preserve" font-family="Helvetica-Bold,Helvetica" font-weight="bold" font-size="96.0" fill="#FEFFFF" transform="matrix(1.00, 0.00, -0.00, -1.00, 344.3, 35.1)">t</text><text xml:space="preserve" font-family="Helvetica-Bold,Helvetica" font-weight="bold" font-size="96.0" fill="#FEFFFF" transform="matrix(1.00, 0.00, -0.00, -1.00, 376.3, 35.1)">i</text><text xml:space="preserve" font-family="Helvetica-Bold,Helvetica" font-weight="bold" font-size="96.0" fill="#FEFFFF" transform="matrix(1.00, 0.00, -0.00, -1.00, 402.9, 35.1)">o</text><text xml:space="preserve" font-family="Helvetica-Bold,Helvetica" font-weight="bold" font-size="96.0" fill="#FEFFFF" transform="matrix(1.00, 0.00, -0.00, -1.00, 461.5, 35.1)">n</text><text xml:space="preserve" font-family="Helvetica-Bold,Helvetica" font-weight="bold" font-size="96.0" fill="#FEFFFF" transform="matrix(1.00, 0.00, -0.00, -1.00, 520.2, 35.1)"> </text><text xml:space="preserve" font-family="Helvetica-Bold,Helvetica" font-weight="bold" font-size="96.0" fill="#FEFFFF" transform="matrix(1.00, 0.00, -0.00, -1.00, 546.8, 35.1)">C</text><text xml:space="preserve" font-family="Helvetica-Bold,Helvetica" font-weight="bold" font-size="96.0" fill="#FEFFFF" transform="matrix(1.00, 0.00, -0.00, -1.00, 616.2, 35.1)">h</text><text xml:space="preserve" font-family="Helvetica-Bold,Helvetica" font-weight="bold" font-size="96.0" fill="#FEFFFF" transform="matrix(1.00, 0.00, -0.00, -1.00, 674.8, 35.1)">a</text><text xml:space="preserve" font-family="Helvetica-Bold,Helvetica" font-weight="bold" font-size="96.0" fill="#FEFFFF" transform="matrix(1.00, 0.00, -0.00, -1.00, 728.2, 35.1)">l</text><text xml:space="preserve" font-family="Helvetica-Bold,Helvetica" font-weight="bold" font-size="96.0" fill="#FEFFFF" transform="matrix(1.00, 0.00, -0.00, -1.00, 754.9, 35.1)">l</text><text xml:space="preserve" font-family="Helvetica-Bold,Helvetica" font-weight="bold" font-size="96.0" fill="#FEFFFF" transform="matrix(1.00, 0.00, -0.00, -1.00, 781.5, 35.1)">e</text><text xml:space="preserve" font-family="Helvetica-Bold,Helvetica" font-weight="bold" font-size="96.0" fill="#FEFFFF" transform="matrix(1.00, 0.00, -0.00, -1.00, 834.9, 35.1)">n</text><text xml:space="preserve" font-family="Helvetica-Bold,Helvetica" font-weight="bold" font-size="96.0" fill="#FEFFFF" transform="matrix(1.00, 0.00, -0.00, -1.00, 893.5, 35.1)">g</text><text xml:space="preserve" font-family="Helvetica-Bold,Helvetica" font-weight="bold" font-size="96.0" fill="#FEFFFF" transform="matrix(1.00, 0.00, -0.00, -1.00, 952.2, 35.1)">e</text><text xml:space="preserve" font-family="Helvetica-Bold,Helvetica" font-weight="bold" font-size="96.0" fill="#FEFFFF" transform="matrix(1.00, 0.00, -0.00, -1.00, 1005.6, 35.1)">s</text></g></svg>