<?xml version="1.0" encoding="UTF-8" standalone="no"?><svg xmlns="http://www.w3.org/2000/svg" xmlns:xlink="http://www.w3.org/1999/xlink" clip-rule="evenodd" stroke-miterlimit="10" viewBox="0 0 1920 1080"><desc>SVG generated by Keynote</desc><defs></defs><g transform="matrix(1.00, 0.00, -0.00, -1.00, 0.0, 1080.0)"><g><clipPath id="clip0x7ff8e97a1440"><path d="M 0.0 1080.0 L 1920.0 1080.0 L 1920.0 0.0 L 0.0 0.0 Z M 0.0 1080.0 "></path></clipPath><g clip-path="url(#clip0x7ff8e97a1440)"><image xlink:href="../../D626D7C7-2071-446D-B507-49A1F5A1A151/assets/E0663D65537768FE0C86ED3DAEA53C23.png" width="1920.00" height="1080.00" transform="matrix(1.00, 0.00, -0.00, 1.00, 0.0, 0.0)"></image></g></g><image xlink:href="06C6B2BCBD0D148D583742D9937BC312.png" width="718.00" height="82.00" transform="matrix(1.00, 0.00, -0.00, -1.00, 46.0, 1023.0)"></image><text xml:space="preserve" font-family="Helvetica-Bold,Helvetica" font-weight="bold" font-size="96.0" fill="#FEFFFF" transform="matrix(0.67, 0.00, -0.00, -0.67, 49.8, 967.1)">D</text><text xml:space="preserve" font-family="Helvetica-Bold,Helvetica" font-weight="bold" font-size="96.0" fill="#FEFFFF" transform="matrix(0.67, 0.00, -0.00, -0.67, 96.1, 967.1)">i</text><text xml:space="preserve" font-family="Helvetica-Bold,Helvetica" font-weight="bold" font-size="96.0" fill="#FEFFFF" transform="matrix(0.67, 0.00, -0.00, -0.67, 113.8, 967.1)">g</text><text xml:space="preserve" font-family="Helvetica-Bold,Helvetica" font-weight="bold" font-size="96.0" fill="#FEFFFF" transform="matrix(0.67, 0.00, -0.00, -0.67, 152.9, 967.1)">i</text><text xml:space="preserve" font-family="Helvetica-Bold,Helvetica" font-weight="bold" font-size="96.0" fill="#FEFFFF" transform="matrix(0.67, 0.00, -0.00, -0.67, 170.7, 967.1)">t</text><text xml:space="preserve" font-family="Helvetica-Bold,Helvetica" font-weight="bold" font-size="96.0" fill="#FEFFFF" transform="matrix(0.67, 0.00, -0.00, -0.67, 192.0, 967.1)">i</text><text xml:space="preserve" font-family="Helvetica-Bold,Helvetica" font-weight="bold" font-size="96.0" fill="#FEFFFF" transform="matrix(0.67, 0.00, -0.00, -0.67, 209.8, 967.1)">z</text><text xml:space="preserve" font-family="Helvetica-Bold,Helvetica" font-weight="bold" font-size="96.0" fill="#FEFFFF" transform="matrix(0.67, 0.00, -0.00, -0.67, 241.8, 967.1)">a</text><text xml:space="preserve" font-family="Helvetica-Bold,Helvetica" font-weight="bold" font-size="96.0" fill="#FEFFFF" transform="matrix(0.67, 0.00, -0.00, -0.67, 277.4, 967.1)">t</text><text xml:space="preserve" font-family="Helvetica-Bold,Helvetica" font-weight="bold" font-size="96.0" fill="#FEFFFF" transform="matrix(0.67, 0.00, -0.00, -0.67, 298.7, 967.1)">i</text><text xml:space="preserve" font-family="Helvetica-Bold,Helvetica" font-weight="bold" font-size="96.0" fill="#FEFFFF" transform="matrix(0.67, 0.00, -0.00, -0.67, 316.5, 967.1)">o</text><text xml:space="preserve" font-family="Helvetica-Bold,Helvetica" font-weight="bold" font-size="96.0" fill="#FEFFFF" transform="matrix(0.67, 0.00, -0.00, -0.67, 355.5, 967.1)">n</text><text xml:space="preserve" font-family="Helvetica-Bold,Helvetica" font-weight="bold" font-size="96.0" fill="#FEFFFF" transform="matrix(0.67, 0.00, -0.00, -0.67, 394.6, 967.1)"> </text><text xml:space="preserve" font-family="Helvetica-Bold,Helvetica" font-weight="bold" font-size="96.0" fill="#FEFFFF" transform="matrix(0.67, 0.00, -0.00, -0.67, 412.4, 967.1)">C</text><text xml:space="preserve" font-family="Helvetica-Bold,Helvetica" font-weight="bold" font-size="96.0" fill="#FEFFFF" transform="matrix(0.67, 0.00, -0.00, -0.67, 458.6, 967.1)">h</text><text xml:space="preserve" font-family="Helvetica-Bold,Helvetica" font-weight="bold" font-size="96.0" fill="#FEFFFF" transform="matrix(0.67, 0.00, -0.00, -0.67, 497.7, 967.1)">a</text><text xml:space="preserve" font-family="Helvetica-Bold,Helvetica" font-weight="bold" font-size="96.0" fill="#FEFFFF" transform="matrix(0.67, 0.00, -0.00, -0.67, 533.3, 967.1)">l</text><text xml:space="preserve" font-family="Helvetica-Bold,Helvetica" font-weight="bold" font-size="96.0" fill="#FEFFFF" transform="matrix(0.67, 0.00, -0.00, -0.67, 551.1, 967.1)">l</text><text xml:space="preserve" font-family="Helvetica-Bold,Helvetica" font-weight="bold" font-size="96.0" fill="#FEFFFF" transform="matrix(0.67, 0.00, -0.00, -0.67, 568.8, 967.1)">e</text><text xml:space="preserve" font-family="Helvetica-Bold,Helvetica" font-weight="bold" font-size="96.0" fill="#FEFFFF" transform="matrix(0.67, 0.00, -0.00, -0.67, 604.4, 967.1)">n</text><text xml:space="preserve" font-family="Helvetica-Bold,Helvetica" font-weight="bold" font-size="96.0" fill="#FEFFFF" transform="matrix(0.67, 0.00, -0.00, -0.67, 643.5, 967.1)">g</text><text xml:space="preserve" font-family="Helvetica-Bold,Helvetica" font-weight="bold" font-size="96.0" fill="#FEFFFF" transform="matrix(0.67, 0.00, -0.00, -0.67, 682.6, 967.1)">e</text><text xml:space="preserve" font-family="Helvetica-Bold,Helvetica" font-weight="bold" font-size="96.0" fill="#FEFFFF" transform="matrix(0.67, 0.00, -0.00, -0.67, 718.2, 967.1)">s</text></g></svg>