<?xml version="1.0" encoding="UTF-8" standalone="no"?><svg xmlns="http://www.w3.org/2000/svg" xmlns:xlink="http://www.w3.org/1999/xlink" clip-rule="evenodd" stroke-miterlimit="10" viewBox="0 0 1920 1080"><desc>SVG generated by Keynote</desc><defs></defs><g transform="matrix(1.00, 0.00, -0.00, -1.00, 0.0, 1080.0)"><g><clipPath id="clip0x7ff8f16d7a70"><path d="M 0.0 1080.0 L 1920.0 1080.0 L 1920.0 0.0 L 0.0 0.0 Z M 0.0 1080.0 "></path></clipPath><g clip-path="url(#clip0x7ff8f16d7a70)"><image xlink:href="../../D626D7C7-2071-446D-B507-49A1F5A1A151/assets/E0663D65537768FE0C86ED3DAEA53C23.png" width="1920.00" height="1080.00" transform="matrix(1.00, 0.00, -0.00, 1.00, 0.0, 0.0)"></image></g></g><image xlink:href="../../826B1758-9D60-4E4D-A403-49C91B10355A/assets/EACE3515A98C2903B250BE6FB0B3CA4C.png" width="718.00" height="82.00" transform="matrix(1.00, 0.00, -0.00, -1.00, 44.0, 1026.0)"></image><text xml:space="preserve" font-family="Helvetica-Bold,Helvetica" font-weight="bold" font-size="64.0" fill="#FEFFFF" transform="matrix(1.00, 0.00, -0.00, -1.00, 48.0, 970.7)">D</text><text xml:space="preserve" font-family="Helvetica-Bold,Helvetica" font-weight="bold" font-size="64.0" fill="#FEFFFF" transform="matrix(1.00, 0.00, -0.00, -1.00, 94.2, 970.7)">i</text><text xml:space="preserve" font-family="Helvetica-Bold,Helvetica" font-weight="bold" font-size="64.0" fill="#FEFFFF" transform="matrix(1.00, 0.00, -0.00, -1.00, 112.0, 970.7)">g</text><text xml:space="preserve" font-family="Helvetica-Bold,Helvetica" font-weight="bold" font-size="64.0" fill="#FEFFFF" transform="matrix(1.00, 0.00, -0.00, -1.00, 151.1, 970.7)">i</text><text xml:space="preserve" font-family="Helvetica-Bold,Helvetica" font-weight="bold" font-size="64.0" fill="#FEFFFF" transform="matrix(1.00, 0.00, -0.00, -1.00, 168.8, 970.7)">t</text><text xml:space="preserve" font-family="Helvetica-Bold,Helvetica" font-weight="bold" font-size="64.0" fill="#FEFFFF" transform="matrix(1.00, 0.00, -0.00, -1.00, 190.2, 970.7)">i</text><text xml:space="preserve" font-family="Helvetica-Bold,Helvetica" font-weight="bold" font-size="64.0" fill="#FEFFFF" transform="matrix(1.00, 0.00, -0.00, -1.00, 207.9, 970.7)">z</text><text xml:space="preserve" font-family="Helvetica-Bold,Helvetica" font-weight="bold" font-size="64.0" fill="#FEFFFF" transform="matrix(1.00, 0.00, -0.00, -1.00, 239.9, 970.7)">a</text><text xml:space="preserve" font-family="Helvetica-Bold,Helvetica" font-weight="bold" font-size="64.0" fill="#FEFFFF" transform="matrix(1.00, 0.00, -0.00, -1.00, 275.5, 970.7)">t</text><text xml:space="preserve" font-family="Helvetica-Bold,Helvetica" font-weight="bold" font-size="64.0" fill="#FEFFFF" transform="matrix(1.00, 0.00, -0.00, -1.00, 296.8, 970.7)">i</text><text xml:space="preserve" font-family="Helvetica-Bold,Helvetica" font-weight="bold" font-size="64.0" fill="#FEFFFF" transform="matrix(1.00, 0.00, -0.00, -1.00, 314.6, 970.7)">o</text><text xml:space="preserve" font-family="Helvetica-Bold,Helvetica" font-weight="bold" font-size="64.0" fill="#FEFFFF" transform="matrix(1.00, 0.00, -0.00, -1.00, 353.7, 970.7)">n</text><text xml:space="preserve" font-family="Helvetica-Bold,Helvetica" font-weight="bold" font-size="64.0" fill="#FEFFFF" transform="matrix(1.00, 0.00, -0.00, -1.00, 392.8, 970.7)"> </text><text xml:space="preserve" font-family="Helvetica-Bold,Helvetica" font-weight="bold" font-size="64.0" fill="#FEFFFF" transform="matrix(1.00, 0.00, -0.00, -1.00, 410.5, 970.7)">C</text><text xml:space="preserve" font-family="Helvetica-Bold,Helvetica" font-weight="bold" font-size="64.0" fill="#FEFFFF" transform="matrix(1.00, 0.00, -0.00, -1.00, 456.8, 970.7)">h</text><text xml:space="preserve" font-family="Helvetica-Bold,Helvetica" font-weight="bold" font-size="64.0" fill="#FEFFFF" transform="matrix(1.00, 0.00, -0.00, -1.00, 495.9, 970.7)">a</text><text xml:space="preserve" font-family="Helvetica-Bold,Helvetica" font-weight="bold" font-size="64.0" fill="#FEFFFF" transform="matrix(1.00, 0.00, -0.00, -1.00, 531.5, 970.7)">l</text><text xml:space="preserve" font-family="Helvetica-Bold,Helvetica" font-weight="bold" font-size="64.0" fill="#FEFFFF" transform="matrix(1.00, 0.00, -0.00, -1.00, 549.2, 970.7)">l</text><text xml:space="preserve" font-family="Helvetica-Bold,Helvetica" font-weight="bold" font-size="64.0" fill="#FEFFFF" transform="matrix(1.00, 0.00, -0.00, -1.00, 567.0, 970.7)">e</text><text xml:space="preserve" font-family="Helvetica-Bold,Helvetica" font-weight="bold" font-size="64.0" fill="#FEFFFF" transform="matrix(1.00, 0.00, -0.00, -1.00, 602.6, 970.7)">n</text><text xml:space="preserve" font-family="Helvetica-Bold,Helvetica" font-weight="bold" font-size="64.0" fill="#FEFFFF" transform="matrix(1.00, 0.00, -0.00, -1.00, 641.7, 970.7)">g</text><text xml:space="preserve" font-family="Helvetica-Bold,Helvetica" font-weight="bold" font-size="64.0" fill="#FEFFFF" transform="matrix(1.00, 0.00, -0.00, -1.00, 680.8, 970.7)">e</text><text xml:space="preserve" font-family="Helvetica-Bold,Helvetica" font-weight="bold" font-size="64.0" fill="#FEFFFF" transform="matrix(1.00, 0.00, -0.00, -1.00, 716.4, 970.7)">s</text><text xml:space="preserve" font-family="Helvetica-Light,Helvetica" font-size="36.0" fill="#FFFFFF" transform="matrix(1.00, 0.00, -0.00, -1.00, 53.0, 915.3)">O</text><text xml:space="preserve" font-family="Helvetica-Light,Helvetica" font-size="36.0" fill="#FFFFFF" transform="matrix(1.00, 0.00, -0.00, -1.00, 81.0, 915.3)">n</text><text xml:space="preserve" font-family="Helvetica-Light,Helvetica" font-size="36.0" fill="#FFFFFF" transform="matrix(1.00, 0.00, -0.00, -1.00, 101.0, 915.3)"> </text><text xml:space="preserve" font-family="Helvetica-Light,Helvetica" font-size="36.0" fill="#FFFFFF" transform="matrix(1.00, 0.00, -0.00, -1.00, 111.0, 915.3)">D</text><text xml:space="preserve" font-family="Helvetica-Light,Helvetica" font-size="36.0" fill="#FFFFFF" transform="matrix(1.00, 0.00, -0.00, -1.00, 137.0, 915.3)">e</text><text xml:space="preserve" font-family="Helvetica-Light,Helvetica" font-size="36.0" fill="#FFFFFF" transform="matrix(1.00, 0.00, -0.00, -1.00, 157.0, 915.3)">m</text><text xml:space="preserve" font-family="Helvetica-Light,Helvetica" font-size="36.0" fill="#FFFFFF" transform="matrix(1.00, 0.00, -0.00, -1.00, 187.0, 915.3)">a</text><text xml:space="preserve" font-family="Helvetica-Light,Helvetica" font-size="36.0" fill="#FFFFFF" transform="matrix(1.00, 0.00, -0.00, -1.00, 207.0, 915.3)">n</text><text xml:space="preserve" font-family="Helvetica-Light,Helvetica" font-size="36.0" fill="#FFFFFF" transform="matrix(1.00, 0.00, -0.00, -1.00, 227.0, 915.3)">d</text><text xml:space="preserve" font-family="Helvetica-Light,Helvetica" font-size="60.0" fill="#FFFFFF" transform="matrix(1.00, 0.00, -0.00, -1.00, 360.0, 718.3)">•</text><text xml:space="preserve" font-family="Helvetica-Light,Helvetica" font-size="48.0" fill="#FFFFFF" transform="matrix(1.00, 0.00, -0.00, -1.00, 410.0, 722.5)">1</text><text xml:space="preserve" font-family="Helvetica-Light,Helvetica" font-size="48.0" fill="#FFFFFF" transform="matrix(1.00, 0.00, -0.00, -1.00, 436.7, 722.5)">"</text><text xml:space="preserve" font-family="Helvetica-Light,Helvetica" font-size="48.0" fill="#FFFFFF" transform="matrix(1.00, 0.00, -0.00, -1.00, 450.0, 722.5)"> </text><text xml:space="preserve" font-family="Helvetica-Light,Helvetica" font-size="48.0" fill="#FFFFFF" transform="matrix(1.00, 0.00, -0.00, -1.00, 463.4, 722.5)">T</text><text xml:space="preserve" font-family="Helvetica-Light,Helvetica" font-size="48.0" fill="#FFFFFF" transform="matrix(1.00, 0.00, -0.00, -1.00, 486.0, 722.5)">y</text><text xml:space="preserve" font-family="Helvetica-Light,Helvetica" font-size="48.0" fill="#FFFFFF" transform="matrix(1.00, 0.00, -0.00, -1.00, 510.0, 722.5)">p</text><text xml:space="preserve" font-family="Helvetica-Light,Helvetica" font-size="48.0" fill="#FFFFFF" transform="matrix(1.00, 0.00, -0.00, -1.00, 539.4, 722.5)">e</text><text xml:space="preserve" font-family="Helvetica-Light,Helvetica" font-size="48.0" fill="#FFFFFF" transform="matrix(1.00, 0.00, -0.00, -1.00, 566.0, 722.5)"> </text><text xml:space="preserve" font-family="Helvetica-Light,Helvetica" font-size="48.0" fill="#FFFFFF" transform="matrix(1.00, 0.00, -0.00, -1.00, 579.4, 722.5)">C</text><text xml:space="preserve" font-family="Helvetica-Light,Helvetica" font-size="60.0" fill="#FFFFFF" transform="matrix(1.00, 0.00, -0.00, -1.00, 360.0, 571.8)">•</text><text xml:space="preserve" font-family="Helvetica-Light,Helvetica" font-size="48.0" fill="#FFFFFF" transform="matrix(1.00, 0.00, -0.00, -1.00, 410.0, 576.0)">U</text><text xml:space="preserve" font-family="Helvetica-Light,Helvetica" font-size="48.0" fill="#FFFFFF" transform="matrix(1.00, 0.00, -0.00, -1.00, 444.7, 576.0)">-</text><text xml:space="preserve" font-family="Helvetica-Light,Helvetica" font-size="48.0" fill="#FFFFFF" transform="matrix(1.00, 0.00, -0.00, -1.00, 460.6, 576.0)">M</text><text xml:space="preserve" font-family="Helvetica-Light,Helvetica" font-size="48.0" fill="#FFFFFF" transform="matrix(1.00, 0.00, -0.00, -1.00, 500.6, 576.0)">a</text><text xml:space="preserve" font-family="Helvetica-Light,Helvetica" font-size="48.0" fill="#FFFFFF" transform="matrix(1.00, 0.00, -0.00, -1.00, 527.3, 576.0)">t</text><text xml:space="preserve" font-family="Helvetica-Light,Helvetica" font-size="48.0" fill="#FFFFFF" transform="matrix(1.00, 0.00, -0.00, -1.00, 540.7, 576.0)">i</text><text xml:space="preserve" font-family="Helvetica-Light,Helvetica" font-size="48.0" fill="#FFFFFF" transform="matrix(1.00, 0.00, -0.00, -1.00, 551.3, 576.0)">c</text><text xml:space="preserve" font-family="Helvetica-Light,Helvetica" font-size="48.0" fill="#FFFFFF" transform="matrix(1.00, 0.00, -0.00, -1.00, 578.0, 576.0)"> </text><text xml:space="preserve" font-family="Helvetica-Light,Helvetica" font-size="48.0" fill="#FFFFFF" transform="matrix(1.00, 0.00, -0.00, -1.00, 591.3, 576.0)">(</text><text xml:space="preserve" font-family="Helvetica-Light,Helvetica" font-size="48.0" fill="#FFFFFF" transform="matrix(1.00, 0.00, -0.00, -1.00, 607.3, 576.0)">3</text><text xml:space="preserve" font-family="Helvetica-Light,Helvetica" font-size="48.0" fill="#FFFFFF" transform="matrix(1.00, 0.00, -0.00, -1.00, 634.0, 576.0)">/</text><text xml:space="preserve" font-family="Helvetica-Light,Helvetica" font-size="48.0" fill="#FFFFFF" transform="matrix(1.00, 0.00, -0.00, -1.00, 647.4, 576.0)">4</text><text xml:space="preserve" font-family="Helvetica-Light,Helvetica" font-size="48.0" fill="#FFFFFF" transform="matrix(1.00, 0.00, -0.00, -1.00, 674.0, 576.0)">”</text><text xml:space="preserve" font-family="Helvetica-Light,Helvetica" font-size="48.0" fill="#FFFFFF" transform="matrix(1.00, 0.00, -0.00, -1.00, 692.7, 576.0)">)</text><text xml:space="preserve" font-family="Helvetica-Light,Helvetica" font-size="60.0" fill="#FFFFFF" transform="matrix(1.00, 0.00, -0.00, -1.00, 360.0, 424.8)">•</text><text xml:space="preserve" font-family="Helvetica-Light,Helvetica" font-size="48.0" fill="#FFFFFF" transform="matrix(1.00, 0.00, -0.00, -1.00, 410.0, 429.0)">B</text><text xml:space="preserve" font-family="Helvetica-Light,Helvetica" font-size="48.0" fill="#FFFFFF" transform="matrix(1.00, 0.00, -0.00, -1.00, 442.0, 429.0)">e</text><text xml:space="preserve" font-family="Helvetica-Light,Helvetica" font-size="48.0" fill="#FFFFFF" transform="matrix(1.00, 0.00, -0.00, -1.00, 468.7, 429.0)">t</text><text xml:space="preserve" font-family="Helvetica-Light,Helvetica" font-size="48.0" fill="#FFFFFF" transform="matrix(1.00, 0.00, -0.00, -1.00, 482.0, 429.0)">a</text><text xml:space="preserve" font-family="Helvetica-Light,Helvetica" font-size="48.0" fill="#FFFFFF" transform="matrix(1.00, 0.00, -0.00, -1.00, 508.7, 429.0)">c</text><text xml:space="preserve" font-family="Helvetica-Light,Helvetica" font-size="48.0" fill="#FFFFFF" transform="matrix(1.00, 0.00, -0.00, -1.00, 535.4, 429.0)">a</text><text xml:space="preserve" font-family="Helvetica-Light,Helvetica" font-size="48.0" fill="#FFFFFF" transform="matrix(1.00, 0.00, -0.00, -1.00, 562.1, 429.0)">m</text><text xml:space="preserve" font-family="Helvetica-Light,Helvetica" font-size="48.0" fill="#FFFFFF" transform="matrix(1.00, 0.00, -0.00, -1.00, 602.1, 429.0)"> </text><text xml:space="preserve" font-family="Helvetica-Light,Helvetica" font-size="48.0" fill="#FFFFFF" transform="matrix(1.00, 0.00, -0.00, -1.00, 615.4, 429.0)">S</text><text xml:space="preserve" font-family="Helvetica-Light,Helvetica" font-size="48.0" fill="#FFFFFF" transform="matrix(1.00, 0.00, -0.00, -1.00, 644.8, 429.0)">P</text><text xml:space="preserve" font-family="Helvetica-Light,Helvetica" font-size="60.0" fill="#FFFFFF" transform="matrix(1.00, 0.00, -0.00, -1.00, 360.0, 277.8)">•</text><text xml:space="preserve" font-family="Helvetica-Light,Helvetica" font-size="48.0" fill="#FFFFFF" transform="matrix(1.00, 0.00, -0.00, -1.00, 410.0, 282.0)">D</text><text xml:space="preserve" font-family="Helvetica-Light,Helvetica" font-size="48.0" fill="#FFFFFF" transform="matrix(1.00, 0.00, -0.00, -1.00, 444.7, 282.0)">i</text><text xml:space="preserve" font-family="Helvetica-Light,Helvetica" font-size="48.0" fill="#FFFFFF" transform="matrix(1.00, 0.00, -0.00, -1.00, 455.3, 282.0)">g</text><text xml:space="preserve" font-family="Helvetica-Light,Helvetica" font-size="48.0" fill="#FFFFFF" transform="matrix(1.00, 0.00, -0.00, -1.00, 484.6, 282.0)">i</text><text xml:space="preserve" font-family="Helvetica-Light,Helvetica" font-size="48.0" fill="#FFFFFF" transform="matrix(1.00, 0.00, -0.00, -1.00, 495.3, 282.0)">B</text><text xml:space="preserve" font-family="Helvetica-Light,Helvetica" font-size="48.0" fill="#FFFFFF" transform="matrix(1.00, 0.00, -0.00, -1.00, 527.3, 282.0)">e</text><text xml:space="preserve" font-family="Helvetica-Light,Helvetica" font-size="48.0" fill="#FFFFFF" transform="matrix(1.00, 0.00, -0.00, -1.00, 554.0, 282.0)">t</text><text xml:space="preserve" font-family="Helvetica-Light,Helvetica" font-size="48.0" fill="#FFFFFF" transform="matrix(1.00, 0.00, -0.00, -1.00, 567.3, 282.0)">a</text><image xlink:href="../../9BBE5B90-7442-48E4-822F-E8B840814124/assets/900FBFB8A38294B5EFD3C43EE91A5D34.png" width="781.00" height="738.00" transform="matrix(1.00, 0.00, -0.00, -1.00, 771.8, 906.6)" opacity="0.43"></image><image xlink:href="../../9BBE5B90-7442-48E4-822F-E8B840814124/assets/8D5C6927528FCEAA7A115794224F2F50.png" width="761.00" height="718.00" transform="matrix(1.00, 0.00, -0.00, -1.00, 780.0, 899.0)"></image></g></svg>