<?xml version="1.0" encoding="UTF-8" standalone="no"?><svg xmlns="http://www.w3.org/2000/svg" xmlns:xlink="http://www.w3.org/1999/xlink" clip-rule="evenodd" stroke-miterlimit="10" viewBox="0 0 430 95"><desc>SVG generated by Keynote</desc><defs></defs><g transform="matrix(1.00, 0.00, -0.00, -1.00, 0.0, 95.0)"><image xlink:href="5ACD22C4D59E5483D164CC7CAE466066.png" width="427.00" height="92.00" transform="matrix(1.00, 0.00, -0.00, -1.00, 2.0, 94.0)"></image><text xml:space="preserve" font-family="Helvetica-Bold,Helvetica" font-weight="bold" font-size="96.0" fill="#FFFFFF" transform="matrix(1.00, 0.00, -0.00, -1.00, 2.9, 16.1)">M</text><text xml:space="preserve" font-family="Helvetica-Bold,Helvetica" font-weight="bold" font-size="96.0" fill="#FFFFFF" transform="matrix(1.00, 0.00, -0.00, -1.00, 82.9, 16.1)">e</text><text xml:space="preserve" font-family="Helvetica-Bold,Helvetica" font-weight="bold" font-size="96.0" fill="#FFFFFF" transform="matrix(1.00, 0.00, -0.00, -1.00, 136.3, 16.1)">t</text><text xml:space="preserve" font-family="Helvetica-Bold,Helvetica" font-weight="bold" font-size="96.0" fill="#FFFFFF" transform="matrix(1.00, 0.00, -0.00, -1.00, 168.3, 16.1)">a</text><text xml:space="preserve" font-family="Helvetica-Bold,Helvetica" font-weight="bold" font-size="96.0" fill="#FFFFFF" transform="matrix(1.00, 0.00, -0.00, -1.00, 221.7, 16.1)">d</text><text xml:space="preserve" font-family="Helvetica-Bold,Helvetica" font-weight="bold" font-size="96.0" fill="#FFFFFF" transform="matrix(1.00, 0.00, -0.00, -1.00, 280.3, 16.1)">a</text><text xml:space="preserve" font-family="Helvetica-Bold,Helvetica" font-weight="bold" font-size="96.0" fill="#FFFFFF" transform="matrix(1.00, 0.00, -0.00, -1.00, 333.7, 16.1)">t</text><text xml:space="preserve" font-family="Helvetica-Bold,Helvetica" font-weight="bold" font-size="96.0" fill="#FFFFFF" transform="matrix(1.00, 0.00, -0.00, -1.00, 365.7, 16.1)">a</text></g></svg>