<?xml version="1.0" encoding="UTF-8" standalone="no"?><svg xmlns="http://www.w3.org/2000/svg" xmlns:xlink="http://www.w3.org/1999/xlink" clip-rule="evenodd" stroke-miterlimit="10" viewBox="0 0 1920 1080"><desc>SVG generated by Keynote</desc><defs></defs><g transform="matrix(1.00, 0.00, -0.00, -1.00, 0.0, 1080.0)"><g><clipPath id="clip0x7ff8f1703bd0"><path d="M 0.0 1080.0 L 1920.0 1080.0 L 1920.0 0.0 L 0.0 0.0 Z M 0.0 1080.0 "></path></clipPath><g clip-path="url(#clip0x7ff8f1703bd0)"><image xlink:href="../../D626D7C7-2071-446D-B507-49A1F5A1A151/assets/E0663D65537768FE0C86ED3DAEA53C23.png" width="1920.00" height="1080.00" transform="matrix(1.00, 0.00, -0.00, 1.00, 0.0, 0.0)"></image></g></g><image xlink:href="../../826B1758-9D60-4E4D-A403-49C91B10355A/assets/EACE3515A98C2903B250BE6FB0B3CA4C.png" width="718.00" height="82.00" transform="matrix(1.00, 0.00, -0.00, -1.00, 44.0, 1026.0)"></image><text xml:space="preserve" font-family="Helvetica-Bold,Helvetica" font-weight="bold" font-size="64.0" fill="#FEFFFF" transform="matrix(1.00, 0.00, -0.00, -1.00, 48.0, 970.7)">D</text><text xml:space="preserve" font-family="Helvetica-Bold,Helvetica" font-weight="bold" font-size="64.0" fill="#FEFFFF" transform="matrix(1.00, 0.00, -0.00, -1.00, 94.2, 970.7)">i</text><text xml:space="preserve" font-family="Helvetica-Bold,Helvetica" font-weight="bold" font-size="64.0" fill="#FEFFFF" transform="matrix(1.00, 0.00, -0.00, -1.00, 112.0, 970.7)">g</text><text xml:space="preserve" font-family="Helvetica-Bold,Helvetica" font-weight="bold" font-size="64.0" fill="#FEFFFF" transform="matrix(1.00, 0.00, -0.00, -1.00, 151.1, 970.7)">i</text><text xml:space="preserve" font-family="Helvetica-Bold,Helvetica" font-weight="bold" font-size="64.0" fill="#FEFFFF" transform="matrix(1.00, 0.00, -0.00, -1.00, 168.8, 970.7)">t</text><text xml:space="preserve" font-family="Helvetica-Bold,Helvetica" font-weight="bold" font-size="64.0" fill="#FEFFFF" transform="matrix(1.00, 0.00, -0.00, -1.00, 190.2, 970.7)">i</text><text xml:space="preserve" font-family="Helvetica-Bold,Helvetica" font-weight="bold" font-size="64.0" fill="#FEFFFF" transform="matrix(1.00, 0.00, -0.00, -1.00, 207.9, 970.7)">z</text><text xml:space="preserve" font-family="Helvetica-Bold,Helvetica" font-weight="bold" font-size="64.0" fill="#FEFFFF" transform="matrix(1.00, 0.00, -0.00, -1.00, 239.9, 970.7)">a</text><text xml:space="preserve" font-family="Helvetica-Bold,Helvetica" font-weight="bold" font-size="64.0" fill="#FEFFFF" transform="matrix(1.00, 0.00, -0.00, -1.00, 275.5, 970.7)">t</text><text xml:space="preserve" font-family="Helvetica-Bold,Helvetica" font-weight="bold" font-size="64.0" fill="#FEFFFF" transform="matrix(1.00, 0.00, -0.00, -1.00, 296.8, 970.7)">i</text><text xml:space="preserve" font-family="Helvetica-Bold,Helvetica" font-weight="bold" font-size="64.0" fill="#FEFFFF" transform="matrix(1.00, 0.00, -0.00, -1.00, 314.6, 970.7)">o</text><text xml:space="preserve" font-family="Helvetica-Bold,Helvetica" font-weight="bold" font-size="64.0" fill="#FEFFFF" transform="matrix(1.00, 0.00, -0.00, -1.00, 353.7, 970.7)">n</text><text xml:space="preserve" font-family="Helvetica-Bold,Helvetica" font-weight="bold" font-size="64.0" fill="#FEFFFF" transform="matrix(1.00, 0.00, -0.00, -1.00, 392.8, 970.7)"> </text><text xml:space="preserve" font-family="Helvetica-Bold,Helvetica" font-weight="bold" font-size="64.0" fill="#FEFFFF" transform="matrix(1.00, 0.00, -0.00, -1.00, 410.5, 970.7)">C</text><text xml:space="preserve" font-family="Helvetica-Bold,Helvetica" font-weight="bold" font-size="64.0" fill="#FEFFFF" transform="matrix(1.00, 0.00, -0.00, -1.00, 456.8, 970.7)">h</text><text xml:space="preserve" font-family="Helvetica-Bold,Helvetica" font-weight="bold" font-size="64.0" fill="#FEFFFF" transform="matrix(1.00, 0.00, -0.00, -1.00, 495.9, 970.7)">a</text><text xml:space="preserve" font-family="Helvetica-Bold,Helvetica" font-weight="bold" font-size="64.0" fill="#FEFFFF" transform="matrix(1.00, 0.00, -0.00, -1.00, 531.5, 970.7)">l</text><text xml:space="preserve" font-family="Helvetica-Bold,Helvetica" font-weight="bold" font-size="64.0" fill="#FEFFFF" transform="matrix(1.00, 0.00, -0.00, -1.00, 549.2, 970.7)">l</text><text xml:space="preserve" font-family="Helvetica-Bold,Helvetica" font-weight="bold" font-size="64.0" fill="#FEFFFF" transform="matrix(1.00, 0.00, -0.00, -1.00, 567.0, 970.7)">e</text><text xml:space="preserve" font-family="Helvetica-Bold,Helvetica" font-weight="bold" font-size="64.0" fill="#FEFFFF" transform="matrix(1.00, 0.00, -0.00, -1.00, 602.6, 970.7)">n</text><text xml:space="preserve" font-family="Helvetica-Bold,Helvetica" font-weight="bold" font-size="64.0" fill="#FEFFFF" transform="matrix(1.00, 0.00, -0.00, -1.00, 641.7, 970.7)">g</text><text xml:space="preserve" font-family="Helvetica-Bold,Helvetica" font-weight="bold" font-size="64.0" fill="#FEFFFF" transform="matrix(1.00, 0.00, -0.00, -1.00, 680.8, 970.7)">e</text><text xml:space="preserve" font-family="Helvetica-Bold,Helvetica" font-weight="bold" font-size="64.0" fill="#FEFFFF" transform="matrix(1.00, 0.00, -0.00, -1.00, 716.4, 970.7)">s</text><text xml:space="preserve" font-family="Helvetica-Light,Helvetica" font-size="36.0" fill="#FFFFFF" transform="matrix(1.00, 0.00, -0.00, -1.00, 53.0, 915.3)">C</text><text xml:space="preserve" font-family="Helvetica-Light,Helvetica" font-size="36.0" fill="#FFFFFF" transform="matrix(1.00, 0.00, -0.00, -1.00, 79.0, 915.3)">o</text><text xml:space="preserve" font-family="Helvetica-Light,Helvetica" font-size="36.0" fill="#FFFFFF" transform="matrix(1.00, 0.00, -0.00, -1.00, 99.0, 915.3)">l</text><text xml:space="preserve" font-family="Helvetica-Light,Helvetica" font-size="36.0" fill="#FFFFFF" transform="matrix(1.00, 0.00, -0.00, -1.00, 107.0, 915.3)">l</text><text xml:space="preserve" font-family="Helvetica-Light,Helvetica" font-size="36.0" fill="#FFFFFF" transform="matrix(1.00, 0.00, -0.00, -1.00, 115.0, 915.3)">a</text><text xml:space="preserve" font-family="Helvetica-Light,Helvetica" font-size="36.0" fill="#FFFFFF" transform="matrix(1.00, 0.00, -0.00, -1.00, 135.0, 915.3)">b</text><text xml:space="preserve" font-family="Helvetica-Light,Helvetica" font-size="36.0" fill="#FFFFFF" transform="matrix(1.00, 0.00, -0.00, -1.00, 157.0, 915.3)">o</text><text xml:space="preserve" font-family="Helvetica-Light,Helvetica" font-size="36.0" fill="#FFFFFF" transform="matrix(1.00, 0.00, -0.00, -1.00, 177.0, 915.3)">r</text><text xml:space="preserve" font-family="Helvetica-Light,Helvetica" font-size="36.0" fill="#FFFFFF" transform="matrix(1.00, 0.00, -0.00, -1.00, 189.0, 915.3)">a</text><text xml:space="preserve" font-family="Helvetica-Light,Helvetica" font-size="36.0" fill="#FFFFFF" transform="matrix(1.00, 0.00, -0.00, -1.00, 209.0, 915.3)">t</text><text xml:space="preserve" font-family="Helvetica-Light,Helvetica" font-size="36.0" fill="#FFFFFF" transform="matrix(1.00, 0.00, -0.00, -1.00, 219.0, 915.3)">i</text><text xml:space="preserve" font-family="Helvetica-Light,Helvetica" font-size="36.0" fill="#FFFFFF" transform="matrix(1.00, 0.00, -0.00, -1.00, 227.0, 915.3)">v</text><text xml:space="preserve" font-family="Helvetica-Light,Helvetica" font-size="36.0" fill="#FFFFFF" transform="matrix(1.00, 0.00, -0.00, -1.00, 245.0, 915.3)">e</text><text xml:space="preserve" font-family="Helvetica-Light,Helvetica" font-size="36.0" fill="#FFFFFF" transform="matrix(1.00, 0.00, -0.00, -1.00, 265.0, 915.3)"> </text><text xml:space="preserve" font-family="Helvetica-Light,Helvetica" font-size="36.0" fill="#FFFFFF" transform="matrix(1.00, 0.00, -0.00, -1.00, 275.0, 915.3)">P</text><text xml:space="preserve" font-family="Helvetica-Light,Helvetica" font-size="36.0" fill="#FFFFFF" transform="matrix(1.00, 0.00, -0.00, -1.00, 297.0, 915.3)">r</text><text xml:space="preserve" font-family="Helvetica-Light,Helvetica" font-size="36.0" fill="#FFFFFF" transform="matrix(1.00, 0.00, -0.00, -1.00, 308.4, 915.3)">o</text><text xml:space="preserve" font-family="Helvetica-Light,Helvetica" font-size="36.0" fill="#FFFFFF" transform="matrix(1.00, 0.00, -0.00, -1.00, 328.4, 915.3)">j</text><text xml:space="preserve" font-family="Helvetica-Light,Helvetica" font-size="36.0" fill="#FFFFFF" transform="matrix(1.00, 0.00, -0.00, -1.00, 336.4, 915.3)">e</text><text xml:space="preserve" font-family="Helvetica-Light,Helvetica" font-size="36.0" fill="#FFFFFF" transform="matrix(1.00, 0.00, -0.00, -1.00, 356.4, 915.3)">c</text><text xml:space="preserve" font-family="Helvetica-Light,Helvetica" font-size="36.0" fill="#FFFFFF" transform="matrix(1.00, 0.00, -0.00, -1.00, 376.4, 915.3)">t</text><text xml:space="preserve" font-family="Helvetica-Light,Helvetica" font-size="36.0" fill="#FFFFFF" transform="matrix(1.00, 0.00, -0.00, -1.00, 386.4, 915.3)">s</text><image xlink:href="../../8024416F-A638-4BA3-B514-BFB720AFAEF4/assets/9C730C6C9A6E7E7D1EA852DEB93DD711.png" width="715.00" height="485.00" transform="matrix(0.88, 0.00, -0.00, -0.88, 930.7, 726.7)" opacity="0.43"></image><image xlink:href="../../8024416F-A638-4BA3-B514-BFB720AFAEF4/assets/A59800340A5DF13EAC39CDFEF614D436.jpeg" width="450.00" height="301.00" transform="matrix(1.36, 0.00, -0.00, -1.36, 938.0, 720.0)"></image><text xml:space="preserve" font-family="Helvetica-Light,Helvetica" font-size="36.0" fill="#FFFFFF" transform="matrix(1.00, 0.00, -0.00, -1.00, 718.4, 99.3)">B</text><text xml:space="preserve" font-family="Helvetica-Light,Helvetica" font-size="36.0" fill="#FFFFFF" transform="matrix(1.00, 0.00, -0.00, -1.00, 742.4, 99.3)">e</text><text xml:space="preserve" font-family="Helvetica-Light,Helvetica" font-size="36.0" fill="#FFFFFF" transform="matrix(1.00, 0.00, -0.00, -1.00, 762.4, 99.3)">t</text><text xml:space="preserve" font-family="Helvetica-Light,Helvetica" font-size="36.0" fill="#FFFFFF" transform="matrix(1.00, 0.00, -0.00, -1.00, 772.4, 99.3)">t</text><text xml:space="preserve" font-family="Helvetica-Light,Helvetica" font-size="36.0" fill="#FFFFFF" transform="matrix(1.00, 0.00, -0.00, -1.00, 782.5, 99.3)">e</text><text xml:space="preserve" font-family="Helvetica-Light,Helvetica" font-size="36.0" fill="#FFFFFF" transform="matrix(1.00, 0.00, -0.00, -1.00, 802.5, 99.3)">r</text><text xml:space="preserve" font-family="Helvetica-Light,Helvetica" font-size="36.0" fill="#FFFFFF" transform="matrix(1.00, 0.00, -0.00, -1.00, 814.5, 99.3)"> </text><text xml:space="preserve" font-family="Helvetica-Light,Helvetica" font-size="36.0" fill="#FFFFFF" transform="matrix(1.00, 0.00, -0.00, -1.00, 824.5, 99.3)">L</text><text xml:space="preserve" font-family="Helvetica-Light,Helvetica" font-size="36.0" fill="#FFFFFF" transform="matrix(1.00, 0.00, -0.00, -1.00, 844.5, 99.3)">i</text><text xml:space="preserve" font-family="Helvetica-Light,Helvetica" font-size="36.0" fill="#FFFFFF" transform="matrix(1.00, 0.00, -0.00, -1.00, 852.5, 99.3)">g</text><text xml:space="preserve" font-family="Helvetica-Light,Helvetica" font-size="36.0" fill="#FFFFFF" transform="matrix(1.00, 0.00, -0.00, -1.00, 874.5, 99.3)">h</text><text xml:space="preserve" font-family="Helvetica-Light,Helvetica" font-size="36.0" fill="#FFFFFF" transform="matrix(1.00, 0.00, -0.00, -1.00, 894.5, 99.3)">t</text><text xml:space="preserve" font-family="Helvetica-Light,Helvetica" font-size="36.0" fill="#FFFFFF" transform="matrix(1.00, 0.00, -0.00, -1.00, 904.5, 99.3)"> </text><text xml:space="preserve" font-family="Helvetica-Light,Helvetica" font-size="36.0" fill="#FFFFFF" transform="matrix(1.00, 0.00, -0.00, -1.00, 914.5, 99.3)">D</text><text xml:space="preserve" font-family="Helvetica-Light,Helvetica" font-size="36.0" fill="#FFFFFF" transform="matrix(1.00, 0.00, -0.00, -1.00, 940.5, 99.3)">i</text><text xml:space="preserve" font-family="Helvetica-Light,Helvetica" font-size="36.0" fill="#FFFFFF" transform="matrix(1.00, 0.00, -0.00, -1.00, 948.5, 99.3)">g</text><text xml:space="preserve" font-family="Helvetica-Light,Helvetica" font-size="36.0" fill="#FFFFFF" transform="matrix(1.00, 0.00, -0.00, -1.00, 970.5, 99.3)">i</text><text xml:space="preserve" font-family="Helvetica-Light,Helvetica" font-size="36.0" fill="#FFFFFF" transform="matrix(1.00, 0.00, -0.00, -1.00, 978.5, 99.3)">t</text><text xml:space="preserve" font-family="Helvetica-Light,Helvetica" font-size="36.0" fill="#FFFFFF" transform="matrix(1.00, 0.00, -0.00, -1.00, 988.5, 99.3)">a</text><text xml:space="preserve" font-family="Helvetica-Light,Helvetica" font-size="36.0" fill="#FFFFFF" transform="matrix(1.00, 0.00, -0.00, -1.00, 1008.5, 99.3)">l</text><text xml:space="preserve" font-family="Helvetica-Light,Helvetica" font-size="36.0" fill="#FFFFFF" transform="matrix(1.00, 0.00, -0.00, -1.00, 1016.5, 99.3)"> </text><text xml:space="preserve" font-family="Helvetica-Light,Helvetica" font-size="36.0" fill="#FFFFFF" transform="matrix(1.00, 0.00, -0.00, -1.00, 1026.5, 99.3)">S</text><text xml:space="preserve" font-family="Helvetica-Light,Helvetica" font-size="36.0" fill="#FFFFFF" transform="matrix(1.00, 0.00, -0.00, -1.00, 1048.5, 99.3)">c</text><text xml:space="preserve" font-family="Helvetica-Light,Helvetica" font-size="36.0" fill="#FFFFFF" transform="matrix(1.00, 0.00, -0.00, -1.00, 1068.5, 99.3)">a</text><text xml:space="preserve" font-family="Helvetica-Light,Helvetica" font-size="36.0" fill="#FFFFFF" transform="matrix(1.00, 0.00, -0.00, -1.00, 1088.5, 99.3)">n</text><text xml:space="preserve" font-family="Helvetica-Light,Helvetica" font-size="36.0" fill="#FFFFFF" transform="matrix(1.00, 0.00, -0.00, -1.00, 1108.5, 99.3)"> </text><text xml:space="preserve" font-family="Helvetica-Light,Helvetica" font-size="36.0" fill="#FFFFFF" transform="matrix(1.00, 0.00, -0.00, -1.00, 1118.5, 99.3)">B</text><text xml:space="preserve" font-family="Helvetica-Light,Helvetica" font-size="36.0" fill="#FFFFFF" transform="matrix(1.00, 0.00, -0.00, -1.00, 1142.6, 99.3)">a</text><text xml:space="preserve" font-family="Helvetica-Light,Helvetica" font-size="36.0" fill="#FFFFFF" transform="matrix(1.00, 0.00, -0.00, -1.00, 1162.6, 99.3)">c</text><text xml:space="preserve" font-family="Helvetica-Light,Helvetica" font-size="36.0" fill="#FFFFFF" transform="matrix(1.00, 0.00, -0.00, -1.00, 1182.6, 99.3)">k</text><text xml:space="preserve" font-family="Helvetica-Light,Helvetica" font-size="60.0" fill="#FFFFFF" transform="matrix(1.00, 0.00, -0.00, -1.00, 397.0, 656.3)">•</text><text xml:space="preserve" font-family="Helvetica-Light,Helvetica" font-size="48.0" fill="#FFFFFF" transform="matrix(1.00, 0.00, -0.00, -1.00, 447.0, 660.5)">T</text><text xml:space="preserve" font-family="Helvetica-Light,Helvetica" font-size="48.0" fill="#FFFFFF" transform="matrix(1.00, 0.00, -0.00, -1.00, 469.3, 660.5)">r</text><text xml:space="preserve" font-family="Helvetica-Light,Helvetica" font-size="48.0" fill="#FFFFFF" transform="matrix(1.00, 0.00, -0.00, -1.00, 485.3, 660.5)">i</text><text xml:space="preserve" font-family="Helvetica-Light,Helvetica" font-size="48.0" fill="#FFFFFF" transform="matrix(1.00, 0.00, -0.00, -1.00, 495.9, 660.5)">l</text><text xml:space="preserve" font-family="Helvetica-Light,Helvetica" font-size="48.0" fill="#FFFFFF" transform="matrix(1.00, 0.00, -0.00, -1.00, 506.6, 660.5)">i</text><text xml:space="preserve" font-family="Helvetica-Light,Helvetica" font-size="48.0" fill="#FFFFFF" transform="matrix(1.00, 0.00, -0.00, -1.00, 517.2, 660.5)">n</text><text xml:space="preserve" font-family="Helvetica-Light,Helvetica" font-size="48.0" fill="#FFFFFF" transform="matrix(1.00, 0.00, -0.00, -1.00, 543.9, 660.5)">e</text><text xml:space="preserve" font-family="Helvetica-Light,Helvetica" font-size="48.0" fill="#FFFFFF" transform="matrix(1.00, 0.00, -0.00, -1.00, 570.6, 660.5)">a</text><text xml:space="preserve" font-family="Helvetica-Light,Helvetica" font-size="48.0" fill="#FFFFFF" transform="matrix(1.00, 0.00, -0.00, -1.00, 597.3, 660.5)">r</text><text xml:space="preserve" font-family="Helvetica-Light,Helvetica" font-size="48.0" fill="#FFFFFF" transform="matrix(1.00, 0.00, -0.00, -1.00, 613.3, 660.5)"> </text><text xml:space="preserve" font-family="Helvetica-Light,Helvetica" font-size="48.0" fill="#FFFFFF" transform="matrix(1.00, 0.00, -0.00, -1.00, 626.6, 660.5)">C</text><text xml:space="preserve" font-family="Helvetica-Light,Helvetica" font-size="48.0" fill="#FFFFFF" transform="matrix(1.00, 0.00, -0.00, -1.00, 661.3, 660.5)">o</text><text xml:space="preserve" font-family="Helvetica-Light,Helvetica" font-size="48.0" fill="#FFFFFF" transform="matrix(1.00, 0.00, -0.00, -1.00, 688.0, 660.5)">l</text><text xml:space="preserve" font-family="Helvetica-Light,Helvetica" font-size="48.0" fill="#FFFFFF" transform="matrix(1.00, 0.00, -0.00, -1.00, 698.6, 660.5)">o</text><text xml:space="preserve" font-family="Helvetica-Light,Helvetica" font-size="48.0" fill="#FFFFFF" transform="matrix(1.00, 0.00, -0.00, -1.00, 725.3, 660.5)">r</text><text xml:space="preserve" font-family="Helvetica-Light,Helvetica" font-size="48.0" fill="#FFFFFF" transform="matrix(1.00, 0.00, -0.00, -1.00, 741.3, 660.5)"> </text><text xml:space="preserve" font-family="Helvetica-Light,Helvetica" font-size="48.0" fill="#FFFFFF" transform="matrix(1.00, 0.00, -0.00, -1.00, 754.6, 660.5)">I</text><text xml:space="preserve" font-family="Helvetica-Light,Helvetica" font-size="48.0" fill="#FFFFFF" transform="matrix(1.00, 0.00, -0.00, -1.00, 768.0, 660.5)">m</text><text xml:space="preserve" font-family="Helvetica-Light,Helvetica" font-size="48.0" fill="#FFFFFF" transform="matrix(1.00, 0.00, -0.00, -1.00, 808.0, 660.5)">a</text><text xml:space="preserve" font-family="Helvetica-Light,Helvetica" font-size="48.0" fill="#FFFFFF" transform="matrix(1.00, 0.00, -0.00, -1.00, 834.6, 660.5)">g</text><text xml:space="preserve" font-family="Helvetica-Light,Helvetica" font-size="48.0" fill="#FFFFFF" transform="matrix(1.00, 0.00, -0.00, -1.00, 864.0, 660.5)">e</text><text xml:space="preserve" font-family="Helvetica-Light,Helvetica" font-size="48.0" fill="#FFFFFF" transform="matrix(1.00, 0.00, -0.00, -1.00, 890.7, 660.5)"> </text><text xml:space="preserve" font-family="Helvetica-Light,Helvetica" font-size="48.0" fill="#FFFFFF" transform="matrix(1.00, 0.00, -0.00, -1.00, 447.0, 602.5)">S</text><text xml:space="preserve" font-family="Helvetica-Light,Helvetica" font-size="48.0" fill="#FFFFFF" transform="matrix(1.00, 0.00, -0.00, -1.00, 476.3, 602.5)">e</text><text xml:space="preserve" font-family="Helvetica-Light,Helvetica" font-size="48.0" fill="#FFFFFF" transform="matrix(1.00, 0.00, -0.00, -1.00, 503.0, 602.5)">n</text><text xml:space="preserve" font-family="Helvetica-Light,Helvetica" font-size="48.0" fill="#FFFFFF" transform="matrix(1.00, 0.00, -0.00, -1.00, 529.7, 602.5)">s</text><text xml:space="preserve" font-family="Helvetica-Light,Helvetica" font-size="48.0" fill="#FFFFFF" transform="matrix(1.00, 0.00, -0.00, -1.00, 553.7, 602.5)">o</text><text xml:space="preserve" font-family="Helvetica-Light,Helvetica" font-size="48.0" fill="#FFFFFF" transform="matrix(1.00, 0.00, -0.00, -1.00, 580.4, 602.5)">r</text><text xml:space="preserve" font-family="Helvetica-Light,Helvetica" font-size="60.0" fill="#FFFFFF" transform="matrix(1.00, 0.00, -0.00, -1.00, 397.0, 492.8)">•</text><text xml:space="preserve" font-family="Helvetica-Light,Helvetica" font-size="48.0" fill="#FFFFFF" transform="matrix(1.00, 0.00, -0.00, -1.00, 447.0, 497.0)">4</text><text xml:space="preserve" font-family="Helvetica-Light,Helvetica" font-size="48.0" fill="#FFFFFF" transform="matrix(1.00, 0.00, -0.00, -1.00, 473.7, 497.0)"> </text><text xml:space="preserve" font-family="Helvetica-Light,Helvetica" font-size="48.0" fill="#FFFFFF" transform="matrix(1.00, 0.00, -0.00, -1.00, 487.0, 497.0)">M</text><text xml:space="preserve" font-family="Helvetica-Light,Helvetica" font-size="48.0" fill="#FFFFFF" transform="matrix(1.00, 0.00, -0.00, -1.00, 527.0, 497.0)">i</text><text xml:space="preserve" font-family="Helvetica-Light,Helvetica" font-size="48.0" fill="#FFFFFF" transform="matrix(1.00, 0.00, -0.00, -1.00, 537.7, 497.0)">n</text><text xml:space="preserve" font-family="Helvetica-Light,Helvetica" font-size="48.0" fill="#FFFFFF" transform="matrix(1.00, 0.00, -0.00, -1.00, 564.4, 497.0)">u</text><text xml:space="preserve" font-family="Helvetica-Light,Helvetica" font-size="48.0" fill="#FFFFFF" transform="matrix(1.00, 0.00, -0.00, -1.00, 591.0, 497.0)">t</text><text xml:space="preserve" font-family="Helvetica-Light,Helvetica" font-size="48.0" fill="#FFFFFF" transform="matrix(1.00, 0.00, -0.00, -1.00, 604.4, 497.0)">e</text><text xml:space="preserve" font-family="Helvetica-Light,Helvetica" font-size="48.0" fill="#FFFFFF" transform="matrix(1.00, 0.00, -0.00, -1.00, 631.1, 497.0)">s</text><text xml:space="preserve" font-family="Helvetica-Light,Helvetica" font-size="48.0" fill="#FFFFFF" transform="matrix(1.00, 0.00, -0.00, -1.00, 655.1, 497.0)"> </text><text xml:space="preserve" font-family="Helvetica-Light,Helvetica" font-size="48.0" fill="#FFFFFF" transform="matrix(1.00, 0.00, -0.00, -1.00, 668.4, 497.0)">P</text><text xml:space="preserve" font-family="Helvetica-Light,Helvetica" font-size="48.0" fill="#FFFFFF" transform="matrix(1.00, 0.00, -0.00, -1.00, 697.8, 497.0)">e</text><text xml:space="preserve" font-family="Helvetica-Light,Helvetica" font-size="48.0" fill="#FFFFFF" transform="matrix(1.00, 0.00, -0.00, -1.00, 724.4, 497.0)">r</text><text xml:space="preserve" font-family="Helvetica-Light,Helvetica" font-size="48.0" fill="#FFFFFF" transform="matrix(1.00, 0.00, -0.00, -1.00, 740.4, 497.0)"> </text><text xml:space="preserve" font-family="Helvetica-Light,Helvetica" font-size="48.0" fill="#FFFFFF" transform="matrix(1.00, 0.00, -0.00, -1.00, 753.8, 497.0)">S</text><text xml:space="preserve" font-family="Helvetica-Light,Helvetica" font-size="48.0" fill="#FFFFFF" transform="matrix(1.00, 0.00, -0.00, -1.00, 783.1, 497.0)">c</text><text xml:space="preserve" font-family="Helvetica-Light,Helvetica" font-size="48.0" fill="#FFFFFF" transform="matrix(1.00, 0.00, -0.00, -1.00, 809.8, 497.0)">a</text><text xml:space="preserve" font-family="Helvetica-Light,Helvetica" font-size="48.0" fill="#FFFFFF" transform="matrix(1.00, 0.00, -0.00, -1.00, 836.5, 497.0)">n</text><text xml:space="preserve" font-family="Helvetica-Light,Helvetica" font-size="60.0" fill="#FFFFFF" transform="matrix(1.00, 0.00, -0.00, -1.00, 397.0, 358.8)">•</text><text xml:space="preserve" font-family="Helvetica-Light,Helvetica" font-size="48.0" fill="#FFFFFF" transform="matrix(1.00, 0.00, -0.00, -1.00, 447.0, 363.0)">N</text><text xml:space="preserve" font-family="Helvetica-Light,Helvetica" font-size="48.0" fill="#FFFFFF" transform="matrix(1.00, 0.00, -0.00, -1.00, 481.7, 363.0)">o</text><text xml:space="preserve" font-family="Helvetica-Light,Helvetica" font-size="48.0" fill="#FFFFFF" transform="matrix(1.00, 0.00, -0.00, -1.00, 508.3, 363.0)"> </text><text xml:space="preserve" font-family="Helvetica-Light,Helvetica" font-size="48.0" fill="#FFFFFF" transform="matrix(1.00, 0.00, -0.00, -1.00, 521.7, 363.0)">“</text><text xml:space="preserve" font-family="Helvetica-Light,Helvetica" font-size="48.0" fill="#FFFFFF" transform="matrix(1.00, 0.00, -0.00, -1.00, 540.4, 363.0)">L</text><text xml:space="preserve" font-family="Helvetica-Light,Helvetica" font-size="48.0" fill="#FFFFFF" transform="matrix(1.00, 0.00, -0.00, -1.00, 567.0, 363.0)">i</text><text xml:space="preserve" font-family="Helvetica-Light,Helvetica" font-size="48.0" fill="#FFFFFF" transform="matrix(1.00, 0.00, -0.00, -1.00, 577.7, 363.0)">v</text><text xml:space="preserve" font-family="Helvetica-Light,Helvetica" font-size="48.0" fill="#FFFFFF" transform="matrix(1.00, 0.00, -0.00, -1.00, 601.7, 363.0)">e</text><text xml:space="preserve" font-family="Helvetica-Light,Helvetica" font-size="48.0" fill="#FFFFFF" transform="matrix(1.00, 0.00, -0.00, -1.00, 628.4, 363.0)">”</text><text xml:space="preserve" font-family="Helvetica-Light,Helvetica" font-size="48.0" fill="#FFFFFF" transform="matrix(1.00, 0.00, -0.00, -1.00, 647.1, 363.0)"> </text><text xml:space="preserve" font-family="Helvetica-Light,Helvetica" font-size="48.0" fill="#FFFFFF" transform="matrix(1.00, 0.00, -0.00, -1.00, 660.4, 363.0)">V</text><text xml:space="preserve" font-family="Helvetica-Light,Helvetica" font-size="48.0" fill="#FFFFFF" transform="matrix(1.00, 0.00, -0.00, -1.00, 688.9, 363.0)">i</text><text xml:space="preserve" font-family="Helvetica-Light,Helvetica" font-size="48.0" fill="#FFFFFF" transform="matrix(1.00, 0.00, -0.00, -1.00, 699.5, 363.0)">e</text><text xml:space="preserve" font-family="Helvetica-Light,Helvetica" font-size="48.0" fill="#FFFFFF" transform="matrix(1.00, 0.00, -0.00, -1.00, 726.2, 363.0)">w</text></g></svg>