<?xml version="1.0" encoding="UTF-8" standalone="no"?><svg xmlns="http://www.w3.org/2000/svg" xmlns:xlink="http://www.w3.org/1999/xlink" clip-rule="evenodd" stroke-miterlimit="10" viewBox="0 0 953 114"><desc>SVG generated by Keynote</desc><defs></defs><g transform="matrix(1.00, 0.00, -0.00, -1.00, 0.0, 114.0)"><image xlink:href="F4C4948A1664029D5F109DC5B488B450.png" width="950.00" height="111.00" transform="matrix(1.00, 0.00, -0.00, -1.00, 2.0, 113.0)"></image><text xml:space="preserve" font-family="Helvetica-Bold,Helvetica" font-weight="bold" font-size="96.0" fill="#FFFFFF" transform="matrix(1.00, 0.00, -0.00, -1.00, 3.0, 35.1)">P</text><text xml:space="preserve" font-family="Helvetica-Bold,Helvetica" font-weight="bold" font-size="96.0" fill="#FFFFFF" transform="matrix(1.00, 0.00, -0.00, -1.00, 67.1, 35.1)">r</text><text xml:space="preserve" font-family="Helvetica-Bold,Helvetica" font-weight="bold" font-size="96.0" fill="#FFFFFF" transform="matrix(1.00, 0.00, -0.00, -1.00, 104.4, 35.1)">o</text><text xml:space="preserve" font-family="Helvetica-Bold,Helvetica" font-weight="bold" font-size="96.0" fill="#FFFFFF" transform="matrix(1.00, 0.00, -0.00, -1.00, 163.1, 35.1)">j</text><text xml:space="preserve" font-family="Helvetica-Bold,Helvetica" font-weight="bold" font-size="96.0" fill="#FFFFFF" transform="matrix(1.00, 0.00, -0.00, -1.00, 189.7, 35.1)">e</text><text xml:space="preserve" font-family="Helvetica-Bold,Helvetica" font-weight="bold" font-size="96.0" fill="#FFFFFF" transform="matrix(1.00, 0.00, -0.00, -1.00, 243.1, 35.1)">c</text><text xml:space="preserve" font-family="Helvetica-Bold,Helvetica" font-weight="bold" font-size="96.0" fill="#FFFFFF" transform="matrix(1.00, 0.00, -0.00, -1.00, 296.5, 35.1)">t</text><text xml:space="preserve" font-family="Helvetica-Bold,Helvetica" font-weight="bold" font-size="96.0" fill="#FFFFFF" transform="matrix(1.00, 0.00, -0.00, -1.00, 328.5, 35.1)"> </text><text xml:space="preserve" font-family="Helvetica-Bold,Helvetica" font-weight="bold" font-size="96.0" fill="#FFFFFF" transform="matrix(1.00, 0.00, -0.00, -1.00, 355.2, 35.1)">M</text><text xml:space="preserve" font-family="Helvetica-Bold,Helvetica" font-weight="bold" font-size="96.0" fill="#FFFFFF" transform="matrix(1.00, 0.00, -0.00, -1.00, 435.1, 35.1)">a</text><text xml:space="preserve" font-family="Helvetica-Bold,Helvetica" font-weight="bold" font-size="96.0" fill="#FFFFFF" transform="matrix(1.00, 0.00, -0.00, -1.00, 488.5, 35.1)">n</text><text xml:space="preserve" font-family="Helvetica-Bold,Helvetica" font-weight="bold" font-size="96.0" fill="#FFFFFF" transform="matrix(1.00, 0.00, -0.00, -1.00, 547.2, 35.1)">a</text><text xml:space="preserve" font-family="Helvetica-Bold,Helvetica" font-weight="bold" font-size="96.0" fill="#FFFFFF" transform="matrix(1.00, 0.00, -0.00, -1.00, 600.6, 35.1)">g</text><text xml:space="preserve" font-family="Helvetica-Bold,Helvetica" font-weight="bold" font-size="96.0" fill="#FFFFFF" transform="matrix(1.00, 0.00, -0.00, -1.00, 659.2, 35.1)">e</text><text xml:space="preserve" font-family="Helvetica-Bold,Helvetica" font-weight="bold" font-size="96.0" fill="#FFFFFF" transform="matrix(1.00, 0.00, -0.00, -1.00, 712.6, 35.1)">m</text><text xml:space="preserve" font-family="Helvetica-Bold,Helvetica" font-weight="bold" font-size="96.0" fill="#FFFFFF" transform="matrix(1.00, 0.00, -0.00, -1.00, 798.0, 35.1)">e</text><text xml:space="preserve" font-family="Helvetica-Bold,Helvetica" font-weight="bold" font-size="96.0" fill="#FFFFFF" transform="matrix(1.00, 0.00, -0.00, -1.00, 851.4, 35.1)">n</text><text xml:space="preserve" font-family="Helvetica-Bold,Helvetica" font-weight="bold" font-size="96.0" fill="#FFFFFF" transform="matrix(1.00, 0.00, -0.00, -1.00, 910.0, 35.1)">t</text></g></svg>