<?xml version="1.0" encoding="UTF-8" standalone="no"?><svg xmlns="http://www.w3.org/2000/svg" xmlns:xlink="http://www.w3.org/1999/xlink" clip-rule="evenodd" stroke-miterlimit="10" viewBox="0 0 1920 1080"><desc>SVG generated by Keynote</desc><defs></defs><g transform="matrix(1.00, 0.00, -0.00, -1.00, 0.0, 1080.0)"><g><clipPath id="clip0x7ff8f35689e0"><path d="M 0.0 1080.0 L 1920.0 1080.0 L 1920.0 0.0 L 0.0 0.0 Z M 0.0 1080.0 "></path></clipPath><g clip-path="url(#clip0x7ff8f35689e0)"><image xlink:href="../../D626D7C7-2071-446D-B507-49A1F5A1A151/assets/E0663D65537768FE0C86ED3DAEA53C23.png" width="1920.00" height="1080.00" transform="matrix(1.00, 0.00, -0.00, 1.00, 0.0, 0.0)"></image></g></g><image xlink:href="../../826B1758-9D60-4E4D-A403-49C91B10355A/assets/EACE3515A98C2903B250BE6FB0B3CA4C.png" width="718.00" height="82.00" transform="matrix(1.00, 0.00, -0.00, -1.00, 44.0, 1026.0)"></image><text xml:space="preserve" font-family="Helvetica-Bold,Helvetica" font-weight="bold" font-size="64.0" fill="#FEFFFF" transform="matrix(1.00, 0.00, -0.00, -1.00, 48.0, 970.7)">D</text><text xml:space="preserve" font-family="Helvetica-Bold,Helvetica" font-weight="bold" font-size="64.0" fill="#FEFFFF" transform="matrix(1.00, 0.00, -0.00, -1.00, 94.2, 970.7)">i</text><text xml:space="preserve" font-family="Helvetica-Bold,Helvetica" font-weight="bold" font-size="64.0" fill="#FEFFFF" transform="matrix(1.00, 0.00, -0.00, -1.00, 112.0, 970.7)">g</text><text xml:space="preserve" font-family="Helvetica-Bold,Helvetica" font-weight="bold" font-size="64.0" fill="#FEFFFF" transform="matrix(1.00, 0.00, -0.00, -1.00, 151.1, 970.7)">i</text><text xml:space="preserve" font-family="Helvetica-Bold,Helvetica" font-weight="bold" font-size="64.0" fill="#FEFFFF" transform="matrix(1.00, 0.00, -0.00, -1.00, 168.8, 970.7)">t</text><text xml:space="preserve" font-family="Helvetica-Bold,Helvetica" font-weight="bold" font-size="64.0" fill="#FEFFFF" transform="matrix(1.00, 0.00, -0.00, -1.00, 190.2, 970.7)">i</text><text xml:space="preserve" font-family="Helvetica-Bold,Helvetica" font-weight="bold" font-size="64.0" fill="#FEFFFF" transform="matrix(1.00, 0.00, -0.00, -1.00, 207.9, 970.7)">z</text><text xml:space="preserve" font-family="Helvetica-Bold,Helvetica" font-weight="bold" font-size="64.0" fill="#FEFFFF" transform="matrix(1.00, 0.00, -0.00, -1.00, 239.9, 970.7)">a</text><text xml:space="preserve" font-family="Helvetica-Bold,Helvetica" font-weight="bold" font-size="64.0" fill="#FEFFFF" transform="matrix(1.00, 0.00, -0.00, -1.00, 275.5, 970.7)">t</text><text xml:space="preserve" font-family="Helvetica-Bold,Helvetica" font-weight="bold" font-size="64.0" fill="#FEFFFF" transform="matrix(1.00, 0.00, -0.00, -1.00, 296.8, 970.7)">i</text><text xml:space="preserve" font-family="Helvetica-Bold,Helvetica" font-weight="bold" font-size="64.0" fill="#FEFFFF" transform="matrix(1.00, 0.00, -0.00, -1.00, 314.6, 970.7)">o</text><text xml:space="preserve" font-family="Helvetica-Bold,Helvetica" font-weight="bold" font-size="64.0" fill="#FEFFFF" transform="matrix(1.00, 0.00, -0.00, -1.00, 353.7, 970.7)">n</text><text xml:space="preserve" font-family="Helvetica-Bold,Helvetica" font-weight="bold" font-size="64.0" fill="#FEFFFF" transform="matrix(1.00, 0.00, -0.00, -1.00, 392.8, 970.7)"> </text><text xml:space="preserve" font-family="Helvetica-Bold,Helvetica" font-weight="bold" font-size="64.0" fill="#FEFFFF" transform="matrix(1.00, 0.00, -0.00, -1.00, 410.5, 970.7)">C</text><text xml:space="preserve" font-family="Helvetica-Bold,Helvetica" font-weight="bold" font-size="64.0" fill="#FEFFFF" transform="matrix(1.00, 0.00, -0.00, -1.00, 456.8, 970.7)">h</text><text xml:space="preserve" font-family="Helvetica-Bold,Helvetica" font-weight="bold" font-size="64.0" fill="#FEFFFF" transform="matrix(1.00, 0.00, -0.00, -1.00, 495.9, 970.7)">a</text><text xml:space="preserve" font-family="Helvetica-Bold,Helvetica" font-weight="bold" font-size="64.0" fill="#FEFFFF" transform="matrix(1.00, 0.00, -0.00, -1.00, 531.5, 970.7)">l</text><text xml:space="preserve" font-family="Helvetica-Bold,Helvetica" font-weight="bold" font-size="64.0" fill="#FEFFFF" transform="matrix(1.00, 0.00, -0.00, -1.00, 549.2, 970.7)">l</text><text xml:space="preserve" font-family="Helvetica-Bold,Helvetica" font-weight="bold" font-size="64.0" fill="#FEFFFF" transform="matrix(1.00, 0.00, -0.00, -1.00, 567.0, 970.7)">e</text><text xml:space="preserve" font-family="Helvetica-Bold,Helvetica" font-weight="bold" font-size="64.0" fill="#FEFFFF" transform="matrix(1.00, 0.00, -0.00, -1.00, 602.6, 970.7)">n</text><text xml:space="preserve" font-family="Helvetica-Bold,Helvetica" font-weight="bold" font-size="64.0" fill="#FEFFFF" transform="matrix(1.00, 0.00, -0.00, -1.00, 641.7, 970.7)">g</text><text xml:space="preserve" font-family="Helvetica-Bold,Helvetica" font-weight="bold" font-size="64.0" fill="#FEFFFF" transform="matrix(1.00, 0.00, -0.00, -1.00, 680.8, 970.7)">e</text><text xml:space="preserve" font-family="Helvetica-Bold,Helvetica" font-weight="bold" font-size="64.0" fill="#FEFFFF" transform="matrix(1.00, 0.00, -0.00, -1.00, 716.4, 970.7)">s</text><text xml:space="preserve" font-family="Helvetica-Light,Helvetica" font-size="36.0" fill="#FFFFFF" transform="matrix(1.00, 0.00, -0.00, -1.00, 53.0, 915.3)">P</text><text xml:space="preserve" font-family="Helvetica-Light,Helvetica" font-size="36.0" fill="#FFFFFF" transform="matrix(1.00, 0.00, -0.00, -1.00, 75.0, 915.3)">r</text><text xml:space="preserve" font-family="Helvetica-Light,Helvetica" font-size="36.0" fill="#FFFFFF" transform="matrix(1.00, 0.00, -0.00, -1.00, 86.3, 915.3)">o</text><text xml:space="preserve" font-family="Helvetica-Light,Helvetica" font-size="36.0" fill="#FFFFFF" transform="matrix(1.00, 0.00, -0.00, -1.00, 106.3, 915.3)">j</text><text xml:space="preserve" font-family="Helvetica-Light,Helvetica" font-size="36.0" fill="#FFFFFF" transform="matrix(1.00, 0.00, -0.00, -1.00, 114.3, 915.3)">e</text><text xml:space="preserve" font-family="Helvetica-Light,Helvetica" font-size="36.0" fill="#FFFFFF" transform="matrix(1.00, 0.00, -0.00, -1.00, 134.3, 915.3)">c</text><text xml:space="preserve" font-family="Helvetica-Light,Helvetica" font-size="36.0" fill="#FFFFFF" transform="matrix(1.00, 0.00, -0.00, -1.00, 154.4, 915.3)">t</text><text xml:space="preserve" font-family="Helvetica-Light,Helvetica" font-size="36.0" fill="#FFFFFF" transform="matrix(1.00, 0.00, -0.00, -1.00, 164.4, 915.3)"> </text><text xml:space="preserve" font-family="Helvetica-Light,Helvetica" font-size="36.0" fill="#FFFFFF" transform="matrix(1.00, 0.00, -0.00, -1.00, 174.4, 915.3)">M</text><text xml:space="preserve" font-family="Helvetica-Light,Helvetica" font-size="36.0" fill="#FFFFFF" transform="matrix(1.00, 0.00, -0.00, -1.00, 204.4, 915.3)">a</text><text xml:space="preserve" font-family="Helvetica-Light,Helvetica" font-size="36.0" fill="#FFFFFF" transform="matrix(1.00, 0.00, -0.00, -1.00, 224.4, 915.3)">n</text><text xml:space="preserve" font-family="Helvetica-Light,Helvetica" font-size="36.0" fill="#FFFFFF" transform="matrix(1.00, 0.00, -0.00, -1.00, 244.4, 915.3)">a</text><text xml:space="preserve" font-family="Helvetica-Light,Helvetica" font-size="36.0" fill="#FFFFFF" transform="matrix(1.00, 0.00, -0.00, -1.00, 264.4, 915.3)">g</text><text xml:space="preserve" font-family="Helvetica-Light,Helvetica" font-size="36.0" fill="#FFFFFF" transform="matrix(1.00, 0.00, -0.00, -1.00, 286.4, 915.3)">e</text><text xml:space="preserve" font-family="Helvetica-Light,Helvetica" font-size="36.0" fill="#FFFFFF" transform="matrix(1.00, 0.00, -0.00, -1.00, 306.4, 915.3)">m</text><text xml:space="preserve" font-family="Helvetica-Light,Helvetica" font-size="36.0" fill="#FFFFFF" transform="matrix(1.00, 0.00, -0.00, -1.00, 336.4, 915.3)">e</text><text xml:space="preserve" font-family="Helvetica-Light,Helvetica" font-size="36.0" fill="#FFFFFF" transform="matrix(1.00, 0.00, -0.00, -1.00, 356.4, 915.3)">n</text><text xml:space="preserve" font-family="Helvetica-Light,Helvetica" font-size="36.0" fill="#FFFFFF" transform="matrix(1.00, 0.00, -0.00, -1.00, 376.4, 915.3)">t</text><image xlink:href="../../1D5B3FE9-9497-49C0-A9CC-0F7C77B857F4/assets/0D031E18A80730FB244AA4A242439B09.png" width="1161.00" height="733.00" transform="matrix(0.75, 0.00, -0.00, -0.75, 916.8, 786.3)" opacity="0.43"></image><image xlink:href="../../1D5B3FE9-9497-49C0-A9CC-0F7C77B857F4/assets/E841230EB35AE5529D0E6E815241B7A5.png" width="1680.00" height="1050.00" transform="matrix(0.51, 0.00, -0.00, -0.51, 923.0, 780.6)"></image><text xml:space="preserve" font-family="Helvetica-Light,Helvetica" font-size="60.0" fill="#FFFFFF" transform="matrix(1.00, 0.00, -0.00, -1.00, 360.0, 718.3)">•</text><text xml:space="preserve" font-family="Helvetica-Light,Helvetica" font-size="48.0" fill="#FFFFFF" transform="matrix(1.00, 0.00, -0.00, -1.00, 410.0, 722.5)">U</text><text xml:space="preserve" font-family="Helvetica-Light,Helvetica" font-size="48.0" fill="#FFFFFF" transform="matrix(1.00, 0.00, -0.00, -1.00, 444.7, 722.5)">s</text><text xml:space="preserve" font-family="Helvetica-Light,Helvetica" font-size="48.0" fill="#FFFFFF" transform="matrix(1.00, 0.00, -0.00, -1.00, 468.7, 722.5)">e</text><text xml:space="preserve" font-family="Helvetica-Light,Helvetica" font-size="48.0" fill="#FFFFFF" transform="matrix(1.00, 0.00, -0.00, -1.00, 495.3, 722.5)">r</text><text xml:space="preserve" font-family="Helvetica-Light,Helvetica" font-size="48.0" fill="#FFFFFF" transform="matrix(1.00, 0.00, -0.00, -1.00, 511.3, 722.5)"> </text><text xml:space="preserve" font-family="Helvetica-Light,Helvetica" font-size="48.0" fill="#FFFFFF" transform="matrix(1.00, 0.00, -0.00, -1.00, 524.7, 722.5)">A</text><text xml:space="preserve" font-family="Helvetica-Light,Helvetica" font-size="48.0" fill="#FFFFFF" transform="matrix(1.00, 0.00, -0.00, -1.00, 556.7, 722.5)">c</text><text xml:space="preserve" font-family="Helvetica-Light,Helvetica" font-size="48.0" fill="#FFFFFF" transform="matrix(1.00, 0.00, -0.00, -1.00, 583.4, 722.5)">c</text><text xml:space="preserve" font-family="Helvetica-Light,Helvetica" font-size="48.0" fill="#FFFFFF" transform="matrix(1.00, 0.00, -0.00, -1.00, 610.1, 722.5)">o</text><text xml:space="preserve" font-family="Helvetica-Light,Helvetica" font-size="48.0" fill="#FFFFFF" transform="matrix(1.00, 0.00, -0.00, -1.00, 636.8, 722.5)">u</text><text xml:space="preserve" font-family="Helvetica-Light,Helvetica" font-size="48.0" fill="#FFFFFF" transform="matrix(1.00, 0.00, -0.00, -1.00, 663.4, 722.5)">n</text><text xml:space="preserve" font-family="Helvetica-Light,Helvetica" font-size="48.0" fill="#FFFFFF" transform="matrix(1.00, 0.00, -0.00, -1.00, 690.1, 722.5)">t</text><text xml:space="preserve" font-family="Helvetica-Light,Helvetica" font-size="48.0" fill="#FFFFFF" transform="matrix(1.00, 0.00, -0.00, -1.00, 703.5, 722.5)">s</text><text xml:space="preserve" font-family="Helvetica-Light,Helvetica" font-size="60.0" fill="#FFFFFF" transform="matrix(1.00, 0.00, -0.00, -1.00, 360.0, 600.8)">•</text><text xml:space="preserve" font-family="Helvetica-Light,Helvetica" font-size="48.0" fill="#FFFFFF" transform="matrix(1.00, 0.00, -0.00, -1.00, 410.0, 605.0)">P</text><text xml:space="preserve" font-family="Helvetica-Light,Helvetica" font-size="48.0" fill="#FFFFFF" transform="matrix(1.00, 0.00, -0.00, -1.00, 439.3, 605.0)">r</text><text xml:space="preserve" font-family="Helvetica-Light,Helvetica" font-size="48.0" fill="#FFFFFF" transform="matrix(1.00, 0.00, -0.00, -1.00, 454.4, 605.0)">o</text><text xml:space="preserve" font-family="Helvetica-Light,Helvetica" font-size="48.0" fill="#FFFFFF" transform="matrix(1.00, 0.00, -0.00, -1.00, 481.1, 605.0)">j</text><text xml:space="preserve" font-family="Helvetica-Light,Helvetica" font-size="48.0" fill="#FFFFFF" transform="matrix(1.00, 0.00, -0.00, -1.00, 491.8, 605.0)">e</text><text xml:space="preserve" font-family="Helvetica-Light,Helvetica" font-size="48.0" fill="#FFFFFF" transform="matrix(1.00, 0.00, -0.00, -1.00, 518.5, 605.0)">c</text><text xml:space="preserve" font-family="Helvetica-Light,Helvetica" font-size="48.0" fill="#FFFFFF" transform="matrix(1.00, 0.00, -0.00, -1.00, 545.2, 605.0)">t</text><text xml:space="preserve" font-family="Helvetica-Light,Helvetica" font-size="48.0" fill="#FFFFFF" transform="matrix(1.00, 0.00, -0.00, -1.00, 558.5, 605.0)">-</text><text xml:space="preserve" font-family="Helvetica-Light,Helvetica" font-size="48.0" fill="#FFFFFF" transform="matrix(1.00, 0.00, -0.00, -1.00, 574.5, 605.0)">b</text><text xml:space="preserve" font-family="Helvetica-Light,Helvetica" font-size="48.0" fill="#FFFFFF" transform="matrix(1.00, 0.00, -0.00, -1.00, 603.8, 605.0)">a</text><text xml:space="preserve" font-family="Helvetica-Light,Helvetica" font-size="48.0" fill="#FFFFFF" transform="matrix(1.00, 0.00, -0.00, -1.00, 630.5, 605.0)">s</text><text xml:space="preserve" font-family="Helvetica-Light,Helvetica" font-size="48.0" fill="#FFFFFF" transform="matrix(1.00, 0.00, -0.00, -1.00, 654.5, 605.0)">e</text><text xml:space="preserve" font-family="Helvetica-Light,Helvetica" font-size="48.0" fill="#FFFFFF" transform="matrix(1.00, 0.00, -0.00, -1.00, 681.2, 605.0)">d</text><text xml:space="preserve" font-family="Helvetica-Light,Helvetica" font-size="48.0" fill="#FFFFFF" transform="matrix(1.00, 0.00, -0.00, -1.00, 710.5, 605.0)"> </text><text xml:space="preserve" font-family="Helvetica-Light,Helvetica" font-size="48.0" fill="#FFFFFF" transform="matrix(1.00, 0.00, -0.00, -1.00, 410.0, 547.0)">W</text><text xml:space="preserve" font-family="Helvetica-Light,Helvetica" font-size="48.0" fill="#FFFFFF" transform="matrix(1.00, 0.00, -0.00, -1.00, 451.8, 547.0)">o</text><text xml:space="preserve" font-family="Helvetica-Light,Helvetica" font-size="48.0" fill="#FFFFFF" transform="matrix(1.00, 0.00, -0.00, -1.00, 478.5, 547.0)">r</text><text xml:space="preserve" font-family="Helvetica-Light,Helvetica" font-size="48.0" fill="#FFFFFF" transform="matrix(1.00, 0.00, -0.00, -1.00, 494.5, 547.0)">k</text><text xml:space="preserve" font-family="Helvetica-Light,Helvetica" font-size="48.0" fill="#FFFFFF" transform="matrix(1.00, 0.00, -0.00, -1.00, 518.5, 547.0)">s</text><text xml:space="preserve" font-family="Helvetica-Light,Helvetica" font-size="48.0" fill="#FFFFFF" transform="matrix(1.00, 0.00, -0.00, -1.00, 542.5, 547.0)">p</text><text xml:space="preserve" font-family="Helvetica-Light,Helvetica" font-size="48.0" fill="#FFFFFF" transform="matrix(1.00, 0.00, -0.00, -1.00, 571.8, 547.0)">a</text><text xml:space="preserve" font-family="Helvetica-Light,Helvetica" font-size="48.0" fill="#FFFFFF" transform="matrix(1.00, 0.00, -0.00, -1.00, 598.5, 547.0)">c</text><text xml:space="preserve" font-family="Helvetica-Light,Helvetica" font-size="48.0" fill="#FFFFFF" transform="matrix(1.00, 0.00, -0.00, -1.00, 625.2, 547.0)">e</text><text xml:space="preserve" font-family="Helvetica-Light,Helvetica" font-size="48.0" fill="#FFFFFF" transform="matrix(1.00, 0.00, -0.00, -1.00, 651.9, 547.0)">s</text><text xml:space="preserve" font-family="Helvetica-Light,Helvetica" font-size="60.0" fill="#FFFFFF" transform="matrix(1.00, 0.00, -0.00, -1.00, 360.0, 424.8)">•</text><text xml:space="preserve" font-family="Helvetica-Light,Helvetica" font-size="48.0" fill="#FFFFFF" transform="matrix(1.00, 0.00, -0.00, -1.00, 410.0, 429.0)">A</text><text xml:space="preserve" font-family="Helvetica-Light,Helvetica" font-size="48.0" fill="#FFFFFF" transform="matrix(1.00, 0.00, -0.00, -1.00, 442.0, 429.0)">c</text><text xml:space="preserve" font-family="Helvetica-Light,Helvetica" font-size="48.0" fill="#FFFFFF" transform="matrix(1.00, 0.00, -0.00, -1.00, 468.7, 429.0)">t</text><text xml:space="preserve" font-family="Helvetica-Light,Helvetica" font-size="48.0" fill="#FFFFFF" transform="matrix(1.00, 0.00, -0.00, -1.00, 482.0, 429.0)">i</text><text xml:space="preserve" font-family="Helvetica-Light,Helvetica" font-size="48.0" fill="#FFFFFF" transform="matrix(1.00, 0.00, -0.00, -1.00, 492.7, 429.0)">v</text><text xml:space="preserve" font-family="Helvetica-Light,Helvetica" font-size="48.0" fill="#FFFFFF" transform="matrix(1.00, 0.00, -0.00, -1.00, 516.7, 429.0)">i</text><text xml:space="preserve" font-family="Helvetica-Light,Helvetica" font-size="48.0" fill="#FFFFFF" transform="matrix(1.00, 0.00, -0.00, -1.00, 527.4, 429.0)">t</text><text xml:space="preserve" font-family="Helvetica-Light,Helvetica" font-size="48.0" fill="#FFFFFF" transform="matrix(1.00, 0.00, -0.00, -1.00, 540.7, 429.0)">y</text><text xml:space="preserve" font-family="Helvetica-Light,Helvetica" font-size="48.0" fill="#FFFFFF" transform="matrix(1.00, 0.00, -0.00, -1.00, 564.7, 429.0)"> </text><text xml:space="preserve" font-family="Helvetica-Light,Helvetica" font-size="48.0" fill="#FFFFFF" transform="matrix(1.00, 0.00, -0.00, -1.00, 578.0, 429.0)">S</text><text xml:space="preserve" font-family="Helvetica-Light,Helvetica" font-size="48.0" fill="#FFFFFF" transform="matrix(1.00, 0.00, -0.00, -1.00, 607.4, 429.0)">t</text><text xml:space="preserve" font-family="Helvetica-Light,Helvetica" font-size="48.0" fill="#FFFFFF" transform="matrix(1.00, 0.00, -0.00, -1.00, 620.7, 429.0)">r</text><text xml:space="preserve" font-family="Helvetica-Light,Helvetica" font-size="48.0" fill="#FFFFFF" transform="matrix(1.00, 0.00, -0.00, -1.00, 635.8, 429.0)">e</text><text xml:space="preserve" font-family="Helvetica-Light,Helvetica" font-size="48.0" fill="#FFFFFF" transform="matrix(1.00, 0.00, -0.00, -1.00, 662.5, 429.0)">a</text><text xml:space="preserve" font-family="Helvetica-Light,Helvetica" font-size="48.0" fill="#FFFFFF" transform="matrix(1.00, 0.00, -0.00, -1.00, 689.2, 429.0)">m</text><text xml:space="preserve" font-family="Helvetica-Light,Helvetica" font-size="60.0" fill="#FFFFFF" transform="matrix(1.00, 0.00, -0.00, -1.00, 360.0, 277.8)">•</text><text xml:space="preserve" font-family="Helvetica-Light,Helvetica" font-size="48.0" fill="#FFFFFF" transform="matrix(1.00, 0.00, -0.00, -1.00, 410.0, 282.0)">M</text><text xml:space="preserve" font-family="Helvetica-Light,Helvetica" font-size="48.0" fill="#FFFFFF" transform="matrix(1.00, 0.00, -0.00, -1.00, 450.0, 282.0)">o</text><text xml:space="preserve" font-family="Helvetica-Light,Helvetica" font-size="48.0" fill="#FFFFFF" transform="matrix(1.00, 0.00, -0.00, -1.00, 476.7, 282.0)">b</text><text xml:space="preserve" font-family="Helvetica-Light,Helvetica" font-size="48.0" fill="#FFFFFF" transform="matrix(1.00, 0.00, -0.00, -1.00, 506.0, 282.0)">i</text><text xml:space="preserve" font-family="Helvetica-Light,Helvetica" font-size="48.0" fill="#FFFFFF" transform="matrix(1.00, 0.00, -0.00, -1.00, 516.7, 282.0)">l</text><text xml:space="preserve" font-family="Helvetica-Light,Helvetica" font-size="48.0" fill="#FFFFFF" transform="matrix(1.00, 0.00, -0.00, -1.00, 527.3, 282.0)">e</text><text xml:space="preserve" font-family="Helvetica-Light,Helvetica" font-size="48.0" fill="#FFFFFF" transform="matrix(1.00, 0.00, -0.00, -1.00, 554.0, 282.0)"> </text><text xml:space="preserve" font-family="Helvetica-Light,Helvetica" font-size="48.0" fill="#FFFFFF" transform="matrix(1.00, 0.00, -0.00, -1.00, 567.3, 282.0)">A</text><text xml:space="preserve" font-family="Helvetica-Light,Helvetica" font-size="48.0" fill="#FFFFFF" transform="matrix(1.00, 0.00, -0.00, -1.00, 599.4, 282.0)">c</text><text xml:space="preserve" font-family="Helvetica-Light,Helvetica" font-size="48.0" fill="#FFFFFF" transform="matrix(1.00, 0.00, -0.00, -1.00, 626.0, 282.0)">c</text><text xml:space="preserve" font-family="Helvetica-Light,Helvetica" font-size="48.0" fill="#FFFFFF" transform="matrix(1.00, 0.00, -0.00, -1.00, 652.7, 282.0)">e</text><text xml:space="preserve" font-family="Helvetica-Light,Helvetica" font-size="48.0" fill="#FFFFFF" transform="matrix(1.00, 0.00, -0.00, -1.00, 679.4, 282.0)">s</text><text xml:space="preserve" font-family="Helvetica-Light,Helvetica" font-size="48.0" fill="#FFFFFF" transform="matrix(1.00, 0.00, -0.00, -1.00, 703.4, 282.0)">s</text></g></svg>