<?xml version="1.0" encoding="UTF-8" standalone="no"?><svg xmlns="http://www.w3.org/2000/svg" xmlns:xlink="http://www.w3.org/1999/xlink" clip-rule="evenodd" stroke-miterlimit="10" viewBox="0 0 1030 116"><desc>SVG generated by Keynote</desc><defs></defs><g transform="matrix(1.00, 0.00, -0.00, -1.00, 0.0, 116.0)"><image xlink:href="E88D16B3183A3D070CD8FB3F20ACC563.png" width="1027.00" height="112.00" transform="matrix(1.00, 0.00, -0.00, -1.00, 2.0, 114.0)"></image><text xml:space="preserve" font-family="Helvetica-Bold,Helvetica" font-weight="bold" font-size="96.0" fill="#FFFFFF" transform="matrix(1.00, 0.00, -0.00, -1.00, 6.6, 35.1)">C</text><text xml:space="preserve" font-family="Helvetica-Bold,Helvetica" font-weight="bold" font-size="96.0" fill="#FFFFFF" transform="matrix(1.00, 0.00, -0.00, -1.00, 76.0, 35.1)">o</text><text xml:space="preserve" font-family="Helvetica-Bold,Helvetica" font-weight="bold" font-size="96.0" fill="#FFFFFF" transform="matrix(1.00, 0.00, -0.00, -1.00, 134.6, 35.1)">l</text><text xml:space="preserve" font-family="Helvetica-Bold,Helvetica" font-weight="bold" font-size="96.0" fill="#FFFFFF" transform="matrix(1.00, 0.00, -0.00, -1.00, 161.3, 35.1)">l</text><text xml:space="preserve" font-family="Helvetica-Bold,Helvetica" font-weight="bold" font-size="96.0" fill="#FFFFFF" transform="matrix(1.00, 0.00, -0.00, -1.00, 187.9, 35.1)">a</text><text xml:space="preserve" font-family="Helvetica-Bold,Helvetica" font-weight="bold" font-size="96.0" fill="#FFFFFF" transform="matrix(1.00, 0.00, -0.00, -1.00, 241.3, 35.1)">b</text><text xml:space="preserve" font-family="Helvetica-Bold,Helvetica" font-weight="bold" font-size="96.0" fill="#FFFFFF" transform="matrix(1.00, 0.00, -0.00, -1.00, 300.0, 35.1)">o</text><text xml:space="preserve" font-family="Helvetica-Bold,Helvetica" font-weight="bold" font-size="96.0" fill="#FFFFFF" transform="matrix(1.00, 0.00, -0.00, -1.00, 358.6, 35.1)">r</text><text xml:space="preserve" font-family="Helvetica-Bold,Helvetica" font-weight="bold" font-size="96.0" fill="#FFFFFF" transform="matrix(1.00, 0.00, -0.00, -1.00, 396.0, 35.1)">a</text><text xml:space="preserve" font-family="Helvetica-Bold,Helvetica" font-weight="bold" font-size="96.0" fill="#FFFFFF" transform="matrix(1.00, 0.00, -0.00, -1.00, 449.4, 35.1)">t</text><text xml:space="preserve" font-family="Helvetica-Bold,Helvetica" font-weight="bold" font-size="96.0" fill="#FFFFFF" transform="matrix(1.00, 0.00, -0.00, -1.00, 481.3, 35.1)">i</text><text xml:space="preserve" font-family="Helvetica-Bold,Helvetica" font-weight="bold" font-size="96.0" fill="#FFFFFF" transform="matrix(1.00, 0.00, -0.00, -1.00, 508.0, 35.1)">v</text><text xml:space="preserve" font-family="Helvetica-Bold,Helvetica" font-weight="bold" font-size="96.0" fill="#FFFFFF" transform="matrix(1.00, 0.00, -0.00, -1.00, 561.4, 35.1)">e</text><text xml:space="preserve" font-family="Helvetica-Bold,Helvetica" font-weight="bold" font-size="96.0" fill="#FFFFFF" transform="matrix(1.00, 0.00, -0.00, -1.00, 614.8, 35.1)"> </text><text xml:space="preserve" font-family="Helvetica-Bold,Helvetica" font-weight="bold" font-size="96.0" fill="#FFFFFF" transform="matrix(1.00, 0.00, -0.00, -1.00, 641.5, 35.1)">P</text><text xml:space="preserve" font-family="Helvetica-Bold,Helvetica" font-weight="bold" font-size="96.0" fill="#FFFFFF" transform="matrix(1.00, 0.00, -0.00, -1.00, 705.5, 35.1)">r</text><text xml:space="preserve" font-family="Helvetica-Bold,Helvetica" font-weight="bold" font-size="96.0" fill="#FFFFFF" transform="matrix(1.00, 0.00, -0.00, -1.00, 742.9, 35.1)">o</text><text xml:space="preserve" font-family="Helvetica-Bold,Helvetica" font-weight="bold" font-size="96.0" fill="#FFFFFF" transform="matrix(1.00, 0.00, -0.00, -1.00, 801.5, 35.1)">j</text><text xml:space="preserve" font-family="Helvetica-Bold,Helvetica" font-weight="bold" font-size="96.0" fill="#FFFFFF" transform="matrix(1.00, 0.00, -0.00, -1.00, 828.1, 35.1)">e</text><text xml:space="preserve" font-family="Helvetica-Bold,Helvetica" font-weight="bold" font-size="96.0" fill="#FFFFFF" transform="matrix(1.00, 0.00, -0.00, -1.00, 881.6, 35.1)">c</text><text xml:space="preserve" font-family="Helvetica-Bold,Helvetica" font-weight="bold" font-size="96.0" fill="#FFFFFF" transform="matrix(1.00, 0.00, -0.00, -1.00, 935.0, 35.1)">t</text><text xml:space="preserve" font-family="Helvetica-Bold,Helvetica" font-weight="bold" font-size="96.0" fill="#FFFFFF" transform="matrix(1.00, 0.00, -0.00, -1.00, 966.9, 35.1)">s</text></g></svg>